<svg id="my-svg" width="100%" xmlns="http://www.w3.org/2000/svg" xmlns:xlink="http://www.w3.org/1999/xlink" class="classDiagram" style="max-width: 1299.01px; background-color: white;" viewBox="0 0 1299.0078125 908" role="graphics-document document" aria-roledescription="class"><style>#my-svg{font-family:"trebuchet ms",verdana,arial,sans-serif;font-size:16px;fill:#333;}@keyframes edge-animation-frame{from{stroke-dashoffset:0;}}@keyframes dash{to{stroke-dashoffset:0;}}#my-svg .edge-animation-slow{stroke-dasharray:9,5!important;stroke-dashoffset:900;animation:dash 50s linear infinite;stroke-linecap:round;}#my-svg .edge-animation-fast{stroke-dasharray:9,5!important;stroke-dashoffset:900;animation:dash 20s linear infinite;stroke-linecap:round;}#my-svg .error-icon{fill:#552222;}#my-svg .error-text{fill:#552222;stroke:#552222;}#my-svg .edge-thickness-normal{stroke-width:1px;}#my-svg .edge-thickness-thick{stroke-width:3.5px;}#my-svg .edge-pattern-solid{stroke-dasharray:0;}#my-svg .edge-thickness-invisible{stroke-width:0;fill:none;}#my-svg .edge-pattern-dashed{stroke-dasharray:3;}#my-svg .edge-pattern-dotted{stroke-dasharray:2;}#my-svg .marker{fill:#333333;stroke:#333333;}#my-svg .marker.cross{stroke:#333333;}#my-svg svg{font-family:"trebuchet ms",verdana,arial,sans-serif;font-size:16px;}#my-svg p{margin:0;}#my-svg g.classGroup text{fill:#9370DB;stroke:none;font-family:"trebuchet ms",verdana,arial,sans-serif;font-size:10px;}#my-svg g.classGroup text .title{font-weight:bolder;}#my-svg .cluster-label text{fill:#333;}#my-svg .cluster-label span{color:#333;}#my-svg .cluster-label span p{background-color:transparent;}#my-svg .cluster rect{fill:#ffffde;stroke:#aaaa33;stroke-width:1px;}#my-svg .cluster text{fill:#333;}#my-svg .cluster span{color:#333;}#my-svg .nodeLabel,#my-svg .edgeLabel{color:#131300;}#my-svg .edgeLabel .label rect{fill:#ECECFF;}#my-svg .label text{fill:#131300;}#my-svg .labelBkg{background:#ECECFF;}#my-svg .edgeLabel .label span{background:#ECECFF;}#my-svg .classTitle{font-weight:bolder;}#my-svg .node rect,#my-svg .node circle,#my-svg .node ellipse,#my-svg .node polygon,#my-svg .node path{fill:#ECECFF;stroke:#9370DB;stroke-width:1px;}#my-svg .divider{stroke:#9370DB;stroke-width:1;}#my-svg g.clickable{cursor:pointer;}#my-svg g.classGroup rect{fill:#ECECFF;stroke:#9370DB;}#my-svg g.classGroup line{stroke:#9370DB;stroke-width:1;}#my-svg .classLabel .box{stroke:none;stroke-width:0;fill:#ECECFF;opacity:0.5;}#my-svg .classLabel .label{fill:#9370DB;font-size:10px;}#my-svg .relation{stroke:#333333;stroke-width:1;fill:none;}#my-svg .dashed-line{stroke-dasharray:3;}#my-svg .dotted-line{stroke-dasharray:1 2;}#my-svg #compositionStart,#my-svg .composition{fill:#333333!important;stroke:#333333!important;stroke-width:1;}#my-svg #compositionEnd,#my-svg .composition{fill:#333333!important;stroke:#333333!important;stroke-width:1;}#my-svg #dependencyStart,#my-svg .dependency{fill:#333333!important;stroke:#333333!important;stroke-width:1;}#my-svg #dependencyStart,#my-svg .dependency{fill:#333333!important;stroke:#333333!important;stroke-width:1;}#my-svg #extensionStart,#my-svg .extension{fill:transparent!important;stroke:#333333!important;stroke-width:1;}#my-svg #extensionEnd,#my-svg .extension{fill:transparent!important;stroke:#333333!important;stroke-width:1;}#my-svg #aggregationStart,#my-svg .aggregation{fill:transparent!important;stroke:#333333!important;stroke-width:1;}#my-svg #aggregationEnd,#my-svg .aggregation{fill:transparent!important;stroke:#333333!important;stroke-width:1;}#my-svg #lollipopStart,#my-svg .lollipop{fill:#ECECFF!important;stroke:#333333!important;stroke-width:1;}#my-svg #lollipopEnd,#my-svg .lollipop{fill:#ECECFF!important;stroke:#333333!important;stroke-width:1;}#my-svg .edgeTerminals{font-size:11px;line-height:initial;}#my-svg .classTitleText{text-anchor:middle;font-size:18px;fill:#333;}#my-svg .label-icon{display:inline-block;height:1em;overflow:visible;vertical-align:-0.125em;}#my-svg .node .label-icon path{fill:currentColor;stroke:revert;stroke-width:revert;}#my-svg :root{--mermaid-font-family:"trebuchet ms",verdana,arial,sans-serif;}</style><g><defs><marker id="my-svg_class-aggregationStart" class="marker aggregation class" refX="18" refY="7" markerWidth="190" markerHeight="240" orient="auto"><path d="M 18,7 L9,13 L1,7 L9,1 Z"/></marker></defs><defs><marker id="my-svg_class-aggregationEnd" class="marker aggregation class" refX="1" refY="7" markerWidth="20" markerHeight="28" orient="auto"><path d="M 18,7 L9,13 L1,7 L9,1 Z"/></marker></defs><defs><marker id="my-svg_class-extensionStart" class="marker extension class" refX="18" refY="7" markerWidth="190" markerHeight="240" orient="auto"><path d="M 1,7 L18,13 V 1 Z"/></marker></defs><defs><marker id="my-svg_class-extensionEnd" class="marker extension class" refX="1" refY="7" markerWidth="20" markerHeight="28" orient="auto"><path d="M 1,1 V 13 L18,7 Z"/></marker></defs><defs><marker id="my-svg_class-compositionStart" class="marker composition class" refX="18" refY="7" markerWidth="190" markerHeight="240" orient="auto"><path d="M 18,7 L9,13 L1,7 L9,1 Z"/></marker></defs><defs><marker id="my-svg_class-compositionEnd" class="marker composition class" refX="1" refY="7" markerWidth="20" markerHeight="28" orient="auto"><path d="M 18,7 L9,13 L1,7 L9,1 Z"/></marker></defs><defs><marker id="my-svg_class-dependencyStart" class="marker dependency class" refX="6" refY="7" markerWidth="190" markerHeight="240" orient="auto"><path d="M 5,7 L9,13 L1,7 L9,1 Z"/></marker></defs><defs><marker id="my-svg_class-dependencyEnd" class="marker dependency class" refX="13" refY="7" markerWidth="20" markerHeight="28" orient="auto"><path d="M 18,7 L9,13 L14,7 L9,1 Z"/></marker></defs><defs><marker id="my-svg_class-lollipopStart" class="marker lollipop class" refX="13" refY="7" markerWidth="190" markerHeight="240" orient="auto"><circle fill="transparent" cx="7" cy="7" r="6"/></marker></defs><defs><marker id="my-svg_class-lollipopEnd" class="marker lollipop class" refX="1" refY="7" markerWidth="190" markerHeight="240" orient="auto"><circle fill="transparent" cx="7" cy="7" r="6"/></marker></defs><g class="root"><g class="clusters"/><g class="edgePaths"><path d="M726.262,135.231L712.812,142.192C699.362,149.154,672.461,163.077,659.011,174.205C645.561,185.333,645.561,193.667,645.561,197.833L645.561,202" id="id_EncounterParticipant_CombatParticipant_1" class="edge-thickness-normal edge-pattern-solid relation" style=";;;" data-edge="true" data-et="edge" data-id="id_EncounterParticipant_CombatParticipant_1" data-points="W3sieCI6NzQxLjU4MjAzMTI1LCJ5IjoxMjcuMzAxNTg5Mjg2NjQ0Nzh9LHsieCI6NjQ1LjU2MDU0Njg3NSwieSI6MTc3fSx7IngiOjY0NS41NjA1NDY4NzUsInkiOjIwMn1d" marker-start="url(#my-svg_class-extensionStart)"/><path d="M485.716,391.55L456.814,404.125C427.913,416.7,370.111,441.85,341.21,462.592C312.309,483.333,312.309,499.667,312.309,507.833L312.309,516" id="id_CombatParticipant_AdversarySlot_2" class="edge-thickness-normal edge-pattern-dashed relation" style=";;;" data-edge="true" data-et="edge" data-id="id_CombatParticipant_AdversarySlot_2" data-points="W3sieCI6NTAxLjUzMzIwMzEyNSwieSI6Mzg0LjY2NzE5NDEzOTE5NDF9LHsieCI6MzEyLjMwODU5Mzc1LCJ5Ijo0Njd9LHsieCI6MzEyLjMwODU5Mzc1LCJ5Ijo1MTZ9XQ==" marker-start="url(#my-svg_class-extensionStart)"/><path d="M805.405,391.55L834.307,404.125C863.208,416.7,921.01,441.85,949.911,458.592C978.813,475.333,978.813,483.667,978.813,487.833L978.813,492" id="id_CombatParticipant_PlayerSlot_3" class="edge-thickness-normal edge-pattern-dashed relation" style=";;;" data-edge="true" data-et="edge" data-id="id_CombatParticipant_PlayerSlot_3" data-points="W3sieCI6Nzg5LjU4Nzg5MDYyNSwieSI6Mzg0LjY2NzE5NDEzOTE5NDF9LHsieCI6OTc4LjgxMjUsInkiOjQ2N30seyJ4Ijo5NzguODEyNSwieSI6NDkyfV0=" marker-start="url(#my-svg_class-extensionStart)"/><path d="M939.683,135.231L953.133,142.192C966.584,149.154,993.484,163.077,1006.934,178.205C1020.385,193.333,1020.385,209.667,1020.385,217.833L1020.385,226" id="id_EncounterParticipant_EnvironmentSlot_4" class="edge-thickness-normal edge-pattern-dashed relation" style=";;;" data-edge="true" data-et="edge" data-id="id_EncounterParticipant_EnvironmentSlot_4" data-points="W3sieCI6OTI0LjM2MzI4MTI1LCJ5IjoxMjcuMzAxNTg5Mjg2NjQ0Nzh9LHsieCI6MTAyMC4zODQ3NjU2MjUsInkiOjE3N30seyJ4IjoxMDIwLjM4NDc2NTYyNSwieSI6MjI2fV0=" marker-start="url(#my-svg_class-extensionStart)"/></g><g class="edgeLabels"><g class="edgeLabel"><g class="label" data-id="id_EncounterParticipant_CombatParticipant_1" transform="translate(0, 0)"><foreignObject width="0" height="0"><div xmlns="http://www.w3.org/1999/xhtml" class="labelBkg" style="display: table-cell; white-space: nowrap; line-height: 1.5; max-width: 200px; text-align: center;"><span class="edgeLabel"></span></div></foreignObject></g></g><g class="edgeLabel"><g class="label" data-id="id_CombatParticipant_AdversarySlot_2" transform="translate(0, 0)"><foreignObject width="0" height="0"><div xmlns="http://www.w3.org/1999/xhtml" class="labelBkg" style="display: table-cell; white-space: nowrap; line-height: 1.5; max-width: 200px; text-align: center;"><span class="edgeLabel"></span></div></foreignObject></g></g><g class="edgeLabel"><g class="label" data-id="id_CombatParticipant_PlayerSlot_3" transform="translate(0, 0)"><foreignObject width="0" height="0"><div xmlns="http://www.w3.org/1999/xhtml" class="labelBkg" style="display: table-cell; white-space: nowrap; line-height: 1.5; max-width: 200px; text-align: center;"><span class="edgeLabel"></span></div></foreignObject></g></g><g class="edgeLabel"><g class="label" data-id="id_EncounterParticipant_EnvironmentSlot_4" transform="translate(0, 0)"><foreignObject width="0" height="0"><div xmlns="http://www.w3.org/1999/xhtml" class="labelBkg" style="display: table-cell; white-space: nowrap; line-height: 1.5; max-width: 200px; text-align: center;"><span class="edgeLabel"></span></div></foreignObject></g></g></g><g class="nodes"><g class="node default" id="classId-EncounterParticipant-0" transform="translate(832.97265625, 80)"><g class="basic label-container"><path d="M-91.390625 -72 L91.390625 -72 L91.390625 72 L-91.390625 72" stroke="none" stroke-width="0" fill="#ECECFF" style=""/><path d="M-91.390625 -72 C-42.36639921215542 -72, 6.657826575689157 -72, 91.390625 -72 M-91.390625 -72 C-23.235038919991794 -72, 44.92054716001641 -72, 91.390625 -72 M91.390625 -72 C91.390625 -25.43285673325157, 91.390625 21.134286533496862, 91.390625 72 M91.390625 -72 C91.390625 -19.726642709063185, 91.390625 32.54671458187363, 91.390625 72 M91.390625 72 C40.02893708856916 72, -11.332750822861684 72, -91.390625 72 M91.390625 72 C36.17212653584548 72, -19.046371928309043 72, -91.390625 72 M-91.390625 72 C-91.390625 15.68308376037686, -91.390625 -40.63383247924628, -91.390625 -72 M-91.390625 72 C-91.390625 16.994139372186737, -91.390625 -38.011721255626526, -91.390625 -72" stroke="#9370DB" stroke-width="1.3" fill="none" stroke-dasharray="0 0" style=""/></g><g class="annotation-group text" transform="translate(-38.328125, -48)"><g class="label" style="" transform="translate(0,-12)"><foreignObject width="76.65625" height="24"><div xmlns="http://www.w3.org/1999/xhtml" style="display: table-cell; white-space: nowrap; line-height: 1.5; max-width: 119px; text-align: center;"><span class="nodeLabel markdown-node-label" style=""><p>«protocol»</p></span></div></foreignObject></g></g><g class="label-group text" transform="translate(-79.390625, -24)"><g class="label" style="font-weight: bolder" transform="translate(0,-12)"><foreignObject width="158.78125" height="24"><div xmlns="http://www.w3.org/1999/xhtml" style="display: table-cell; white-space: nowrap; line-height: 1.5; max-width: 185px; text-align: center;"><span class="nodeLabel markdown-node-label" style=""><p>EncounterParticipant</p></span></div></foreignObject></g></g><g class="members-group text" transform="translate(-79.390625, 24)"><g class="label" style="" transform="translate(0,-12)"><foreignObject width="61.703125" height="24"><div xmlns="http://www.w3.org/1999/xhtml" style="display: table-cell; white-space: nowrap; line-height: 1.5; max-width: 120px; text-align: center;"><span class="nodeLabel markdown-node-label" style=""><p>+UUID id</p></span></div></foreignObject></g></g><g class="methods-group text" transform="translate(-79.390625, 72)"/><g class="divider" style=""><path d="M-91.390625 0 C-23.0551216278607 0, 45.2803817442786 0, 91.390625 0 M-91.390625 0 C-20.964607022020445 0, 49.46141095595911 0, 91.390625 0" stroke="#9370DB" stroke-width="1.3" fill="none" stroke-dasharray="0 0" style=""/></g><g class="divider" style=""><path d="M-91.390625 48 C-51.1996742611863 48, -11.008723522372605 48, 91.390625 48 M-91.390625 48 C-39.14828110752025 48, 13.094062784959505 48, 91.390625 48" stroke="#9370DB" stroke-width="1.3" fill="none" stroke-dasharray="0 0" style=""/></g></g><g class="node default" id="classId-CombatParticipant-1" transform="translate(645.560546875, 322)"><g class="basic label-container"><path d="M-144.02734375 -120 L144.02734375 -120 L144.02734375 120 L-144.02734375 120" stroke="none" stroke-width="0" fill="#ECECFF" style=""/><path d="M-144.02734375 -120 C-66.62027333468565 -120, 10.786797080628702 -120, 144.02734375 -120 M-144.02734375 -120 C-42.86716249319626 -120, 58.29301876360748 -120, 144.02734375 -120 M144.02734375 -120 C144.02734375 -42.26287916337529, 144.02734375 35.47424167324942, 144.02734375 120 M144.02734375 -120 C144.02734375 -60.934454586087114, 144.02734375 -1.8689091721742273, 144.02734375 120 M144.02734375 120 C56.77293403197086 120, -30.481475686058275 120, -144.02734375 120 M144.02734375 120 C76.70023904362799 120, 9.373134337255976 120, -144.02734375 120 M-144.02734375 120 C-144.02734375 36.88841929385747, -144.02734375 -46.223161412285066, -144.02734375 -120 M-144.02734375 120 C-144.02734375 37.18357232623123, -144.02734375 -45.63285534753754, -144.02734375 -120" stroke="#9370DB" stroke-width="1.3" fill="none" stroke-dasharray="0 0" style=""/></g><g class="annotation-group text" transform="translate(-38.328125, -96)"><g class="label" style="" transform="translate(0,-12)"><foreignObject width="76.65625" height="24"><div xmlns="http://www.w3.org/1999/xhtml" style="display: table-cell; white-space: nowrap; line-height: 1.5; max-width: 119px; text-align: center;"><span class="nodeLabel markdown-node-label" style=""><p>«protocol»</p></span></div></foreignObject></g></g><g class="label-group text" transform="translate(-69.2421875, -72)"><g class="label" style="font-weight: bolder" transform="translate(0,-12)"><foreignObject width="138.484375" height="24"><div xmlns="http://www.w3.org/1999/xhtml" style="display: table-cell; white-space: nowrap; line-height: 1.5; max-width: 170px; text-align: center;"><span class="nodeLabel markdown-node-label" style=""><p>CombatParticipant</p></span></div></foreignObject></g></g><g class="members-group text" transform="translate(-132.02734375, -24)"><g class="label" style="" transform="translate(0,-12)"><foreignObject width="105.0625" height="24"><div xmlns="http://www.w3.org/1999/xhtml" style="display: table-cell; white-space: nowrap; line-height: 1.5; max-width: 151px; text-align: center;"><span class="nodeLabel markdown-node-label" style=""><p>+Int currentHP</p></span></div></foreignObject></g><g class="label" style="" transform="translate(0,12)"><foreignObject width="81.84375" height="24"><div xmlns="http://www.w3.org/1999/xhtml" style="display: table-cell; white-space: nowrap; line-height: 1.5; max-width: 133px; text-align: center;"><span class="nodeLabel markdown-node-label" style=""><p>+Int maxHP</p></span></div></foreignObject></g><g class="label" style="" transform="translate(0,36)"><foreignObject width="127.609375" height="24"><div xmlns="http://www.w3.org/1999/xhtml" style="display: table-cell; white-space: nowrap; line-height: 1.5; max-width: 169px; text-align: center;"><span class="nodeLabel markdown-node-label" style=""><p>+Int currentStress</p></span></div></foreignObject></g><g class="label" style="" transform="translate(0,60)"><foreignObject width="104.390625" height="24"><div xmlns="http://www.w3.org/1999/xhtml" style="display: table-cell; white-space: nowrap; line-height: 1.5; max-width: 151px; text-align: center;"><span class="nodeLabel markdown-node-label" style=""><p>+Int maxStress</p></span></div></foreignObject></g><g class="label" style="" transform="translate(0,84)"><foreignObject width="194.8125" height="24"><div xmlns="http://www.w3.org/1999/xhtml" style="display: table-cell; white-space: nowrap; line-height: 1.5; max-width: 274px; text-align: center;"><span class="nodeLabel markdown-node-label" style=""><p>+Set&lt;Condition&gt; conditions</p></span></div></foreignObject></g></g><g class="methods-group text" transform="translate(-132.02734375, 120)"/><g class="divider" style=""><path d="M-144.02734375 -48 C-59.120122822038866 -48, 25.78709810592227 -48, 144.02734375 -48 M-144.02734375 -48 C-49.79972475828356 -48, 44.42789423343288 -48, 144.02734375 -48" stroke="#9370DB" stroke-width="1.3" fill="none" stroke-dasharray="0 0" style=""/></g><g class="divider" style=""><path d="M-144.02734375 96 C-85.029980261201 96, -26.032616772402008 96, 144.02734375 96 M-144.02734375 96 C-78.0058396835539 96, -11.984335617107803 96, 144.02734375 96" stroke="#9370DB" stroke-width="1.3" fill="none" stroke-dasharray="0 0" style=""/></g></g><g class="node default" id="classId-AdversarySlot-2" transform="translate(312.30859375, 696)"><g class="basic label-container"><path d="M-304.30859375 -180 L304.30859375 -180 L304.30859375 180 L-304.30859375 180" stroke="none" stroke-width="0" fill="#ECECFF" style=""/><path d="M-304.30859375 -180 C-152.2215008556917 -180, -0.13440796138337419 -180, 304.30859375 -180 M-304.30859375 -180 C-127.07078268379627 -180, 50.167028382407466 -180, 304.30859375 -180 M304.30859375 -180 C304.30859375 -40.06000859395181, 304.30859375 99.87998281209639, 304.30859375 180 M304.30859375 -180 C304.30859375 -45.52545825670478, 304.30859375 88.94908348659044, 304.30859375 180 M304.30859375 180 C172.8999090153811 180, 41.4912242807622 180, -304.30859375 180 M304.30859375 180 C175.03907215839587 180, 45.769550566791736 180, -304.30859375 180 M-304.30859375 180 C-304.30859375 37.71667953302659, -304.30859375 -104.56664093394681, -304.30859375 -180 M-304.30859375 180 C-304.30859375 65.48419623465107, -304.30859375 -49.03160753069787, -304.30859375 -180" stroke="#9370DB" stroke-width="1.3" fill="none" stroke-dasharray="0 0" style=""/></g><g class="annotation-group text" transform="translate(0, -156)"/><g class="label-group text" transform="translate(-51.4921875, -156)"><g class="label" style="font-weight: bolder" transform="translate(0,-12)"><foreignObject width="102.984375" height="24"><div xmlns="http://www.w3.org/1999/xhtml" style="display: table-cell; white-space: nowrap; line-height: 1.5; max-width: 142px; text-align: center;"><span class="nodeLabel markdown-node-label" style=""><p>AdversarySlot</p></span></div></foreignObject></g></g><g class="members-group text" transform="translate(-292.30859375, -108)"><g class="label" style="" transform="translate(0,-12)"><foreignObject width="61.703125" height="24"><div xmlns="http://www.w3.org/1999/xhtml" style="display: table-cell; white-space: nowrap; line-height: 1.5; max-width: 120px; text-align: center;"><span class="nodeLabel markdown-node-label" style=""><p>+UUID id</p></span></div></foreignObject></g><g class="label" style="" transform="translate(0,12)"><foreignObject width="138.171875" height="24"><div xmlns="http://www.w3.org/1999/xhtml" style="display: table-cell; white-space: nowrap; line-height: 1.5; max-width: 186px; text-align: center;"><span class="nodeLabel markdown-node-label" style=""><p>+String adversaryID</p></span></div></foreignObject></g><g class="label" style="" transform="translate(0,36)"><foreignObject width="152.65625" height="24"><div xmlns="http://www.w3.org/1999/xhtml" style="display: table-cell; white-space: nowrap; line-height: 1.5; max-width: 198px; text-align: center;"><span class="nodeLabel markdown-node-label" style=""><p>+String? customName</p></span></div></foreignObject></g><g class="label" style="" transform="translate(0,60)"><foreignObject width="81.84375" height="24"><div xmlns="http://www.w3.org/1999/xhtml" style="display: table-cell; white-space: nowrap; line-height: 1.5; max-width: 133px; text-align: center;"><span class="nodeLabel markdown-node-label" style=""><p>+Int maxHP</p></span></div></foreignObject></g><g class="label" style="" transform="translate(0,84)"><foreignObject width="104.390625" height="24"><div xmlns="http://www.w3.org/1999/xhtml" style="display: table-cell; white-space: nowrap; line-height: 1.5; max-width: 151px; text-align: center;"><span class="nodeLabel markdown-node-label" style=""><p>+Int maxStress</p></span></div></foreignObject></g><g class="label" style="" transform="translate(0,108)"><foreignObject width="105.0625" height="24"><div xmlns="http://www.w3.org/1999/xhtml" style="display: table-cell; white-space: nowrap; line-height: 1.5; max-width: 151px; text-align: center;"><span class="nodeLabel markdown-node-label" style=""><p>+Int currentHP</p></span></div></foreignObject></g><g class="label" style="" transform="translate(0,132)"><foreignObject width="127.609375" height="24"><div xmlns="http://www.w3.org/1999/xhtml" style="display: table-cell; white-space: nowrap; line-height: 1.5; max-width: 169px; text-align: center;"><span class="nodeLabel markdown-node-label" style=""><p>+Int currentStress</p></span></div></foreignObject></g><g class="label" style="" transform="translate(0,156)"><foreignObject width="120.765625" height="24"><div xmlns="http://www.w3.org/1999/xhtml" style="display: table-cell; white-space: nowrap; line-height: 1.5; max-width: 167px; text-align: center;"><span class="nodeLabel markdown-node-label" style=""><p>+Bool isDefeated</p></span></div></foreignObject></g><g class="label" style="" transform="translate(0,180)"><foreignObject width="194.8125" height="24"><div xmlns="http://www.w3.org/1999/xhtml" style="display: table-cell; white-space: nowrap; line-height: 1.5; max-width: 274px; text-align: center;"><span class="nodeLabel markdown-node-label" style=""><p>+Set&lt;Condition&gt; conditions</p></span></div></foreignObject></g></g><g class="methods-group text" transform="translate(-292.30859375, 132)"><g class="label" style="" transform="translate(0,-12)"><foreignObject width="264.890625" height="24"><div xmlns="http://www.w3.org/1999/xhtml" style="display: table-cell; white-space: nowrap; line-height: 1.5; max-width: 297px; text-align: center;"><span class="nodeLabel markdown-node-label" style=""><p>+init(from: Adversary, customName:)</p></span></div></foreignObject></g><g class="label" style="" transform="translate(0,12)"><foreignObject width="533.125" height="24"><div xmlns="http://www.w3.org/1999/xhtml" style="display: table-cell; white-space: nowrap; line-height: 1.5; max-width: 536px; text-align: center;"><span class="nodeLabel markdown-node-label" style=""><p>+applying(currentHP:currentStress:isDefeated:conditions:) : AdversarySlot</p></span></div></foreignObject></g></g><g class="divider" style=""><path d="M-304.30859375 -132 C-69.9645588738552 -132, 164.3794760022896 -132, 304.30859375 -132 M-304.30859375 -132 C-119.46958790285319 -132, 65.36941794429362 -132, 304.30859375 -132" stroke="#9370DB" stroke-width="1.3" fill="none" stroke-dasharray="0 0" style=""/></g><g class="divider" style=""><path d="M-304.30859375 108 C-145.82981871023912 108, 12.648956329521752 108, 304.30859375 108 M-304.30859375 108 C-149.96881867540625 108, 4.370956399187492 108, 304.30859375 108" stroke="#9370DB" stroke-width="1.3" fill="none" stroke-dasharray="0 0" style=""/></g></g><g class="node default" id="classId-PlayerSlot-3" transform="translate(978.8125, 696)"><g class="basic label-container"><path d="M-312.1953125 -204 L312.1953125 -204 L312.1953125 204 L-312.1953125 204" stroke="none" stroke-width="0" fill="#ECECFF" style=""/><path d="M-312.1953125 -204 C-77.4045718619137 -204, 157.3861687761726 -204, 312.1953125 -204 M-312.1953125 -204 C-153.9021279564029 -204, 4.391056587194214 -204, 312.1953125 -204 M312.1953125 -204 C312.1953125 -44.115615124935005, 312.1953125 115.76876975012999, 312.1953125 204 M312.1953125 -204 C312.1953125 -48.981289702383464, 312.1953125 106.03742059523307, 312.1953125 204 M312.1953125 204 C91.94876770356825 204, -128.2977770928635 204, -312.1953125 204 M312.1953125 204 C151.03998038164204 204, -10.115351736715922 204, -312.1953125 204 M-312.1953125 204 C-312.1953125 101.103142286156, -312.1953125 -1.7937154276879994, -312.1953125 -204 M-312.1953125 204 C-312.1953125 92.36491206469832, -312.1953125 -19.270175870603367, -312.1953125 -204" stroke="#9370DB" stroke-width="1.3" fill="none" stroke-dasharray="0 0" style=""/></g><g class="annotation-group text" transform="translate(0, -180)"/><g class="label-group text" transform="translate(-37.75, -180)"><g class="label" style="font-weight: bolder" transform="translate(0,-12)"><foreignObject width="75.5" height="24"><div xmlns="http://www.w3.org/1999/xhtml" style="display: table-cell; white-space: nowrap; line-height: 1.5; max-width: 117px; text-align: center;"><span class="nodeLabel markdown-node-label" style=""><p>PlayerSlot</p></span></div></foreignObject></g></g><g class="members-group text" transform="translate(-300.1953125, -132)"><g class="label" style="" transform="translate(0,-12)"><foreignObject width="61.703125" height="24"><div xmlns="http://www.w3.org/1999/xhtml" style="display: table-cell; white-space: nowrap; line-height: 1.5; max-width: 120px; text-align: center;"><span class="nodeLabel markdown-node-label" style=""><p>+UUID id</p></span></div></foreignObject></g><g class="label" style="" transform="translate(0,12)"><foreignObject width="93.96875" height="24"><div xmlns="http://www.w3.org/1999/xhtml" style="display: table-cell; white-space: nowrap; line-height: 1.5; max-width: 141px; text-align: center;"><span class="nodeLabel markdown-node-label" style=""><p>+String name</p></span></div></foreignObject></g><g class="label" style="" transform="translate(0,36)"><foreignObject width="81.84375" height="24"><div xmlns="http://www.w3.org/1999/xhtml" style="display: table-cell; white-space: nowrap; line-height: 1.5; max-width: 133px; text-align: center;"><span class="nodeLabel markdown-node-label" style=""><p>+Int maxHP</p></span></div></foreignObject></g><g class="label" style="" transform="translate(0,60)"><foreignObject width="105.0625" height="24"><div xmlns="http://www.w3.org/1999/xhtml" style="display: table-cell; white-space: nowrap; line-height: 1.5; max-width: 151px; text-align: center;"><span class="nodeLabel markdown-node-label" style=""><p>+Int currentHP</p></span></div></foreignObject></g><g class="label" style="" transform="translate(0,84)"><foreignObject width="104.390625" height="24"><div xmlns="http://www.w3.org/1999/xhtml" style="display: table-cell; white-space: nowrap; line-height: 1.5; max-width: 151px; text-align: center;"><span class="nodeLabel markdown-node-label" style=""><p>+Int maxStress</p></span></div></foreignObject></g><g class="label" style="" transform="translate(0,108)"><foreignObject width="127.609375" height="24"><div xmlns="http://www.w3.org/1999/xhtml" style="display: table-cell; white-space: nowrap; line-height: 1.5; max-width: 169px; text-align: center;"><span class="nodeLabel markdown-node-label" style=""><p>+Int currentStress</p></span></div></foreignObject></g><g class="label" style="" transform="translate(0,132)"><foreignObject width="86.09375" height="24"><div xmlns="http://www.w3.org/1999/xhtml" style="display: table-cell; white-space: nowrap; line-height: 1.5; max-width: 134px; text-align: center;"><span class="nodeLabel markdown-node-label" style=""><p>+Int evasion</p></span></div></foreignObject></g><g class="label" style="" transform="translate(0,156)"><foreignObject width="140.65625" height="24"><div xmlns="http://www.w3.org/1999/xhtml" style="display: table-cell; white-space: nowrap; line-height: 1.5; max-width: 184px; text-align: center;"><span class="nodeLabel markdown-node-label" style=""><p>+Int thresholdMajor</p></span></div></foreignObject></g><g class="label" style="" transform="translate(0,180)"><foreignObject width="148.15625" height="24"><div xmlns="http://www.w3.org/1999/xhtml" style="display: table-cell; white-space: nowrap; line-height: 1.5; max-width: 188px; text-align: center;"><span class="nodeLabel markdown-node-label" style=""><p>+Int thresholdSevere</p></span></div></foreignObject></g><g class="label" style="" transform="translate(0,204)"><foreignObject width="109.28125" height="24"><div xmlns="http://www.w3.org/1999/xhtml" style="display: table-cell; white-space: nowrap; line-height: 1.5; max-width: 155px; text-align: center;"><span class="nodeLabel markdown-node-label" style=""><p>+Int armorSlots</p></span></div></foreignObject></g><g class="label" style="" transform="translate(0,228)"><foreignObject width="163.234375" height="24"><div xmlns="http://www.w3.org/1999/xhtml" style="display: table-cell; white-space: nowrap; line-height: 1.5; max-width: 205px; text-align: center;"><span class="nodeLabel markdown-node-label" style=""><p>+Int currentArmorSlots</p></span></div></foreignObject></g><g class="label" style="" transform="translate(0,252)"><foreignObject width="194.8125" height="24"><div xmlns="http://www.w3.org/1999/xhtml" style="display: table-cell; white-space: nowrap; line-height: 1.5; max-width: 274px; text-align: center;"><span class="nodeLabel markdown-node-label" style=""><p>+Set&lt;Condition&gt; conditions</p></span></div></foreignObject></g></g><g class="methods-group text" transform="translate(-300.1953125, 180)"><g class="label" style="" transform="translate(0,-12)"><foreignObject width="562.640625" height="24"><div xmlns="http://www.w3.org/1999/xhtml" style="display: table-cell; white-space: nowrap; line-height: 1.5; max-width: 563px; text-align: center;"><span class="nodeLabel markdown-node-label" style=""><p>+applying(currentHP:currentStress:currentArmorSlots:conditions:) : PlayerSlot</p></span></div></foreignObject></g></g><g class="divider" style=""><path d="M-312.1953125 -156 C-148.96159152328428 -156, 14.272129453431432 -156, 312.1953125 -156 M-312.1953125 -156 C-78.13771866051334 -156, 155.9198751789733 -156, 312.1953125 -156" stroke="#9370DB" stroke-width="1.3" fill="none" stroke-dasharray="0 0" style=""/></g><g class="divider" style=""><path d="M-312.1953125 156 C-151.98843925471866 156, 8.218433990562687 156, 312.1953125 156 M-312.1953125 156 C-69.8032657705507 156, 172.5887809588986 156, 312.1953125 156" stroke="#9370DB" stroke-width="1.3" fill="none" stroke-dasharray="0 0" style=""/></g></g><g class="node default" id="classId-EnvironmentSlot-4" transform="translate(1020.384765625, 322)"><g class="basic label-container"><path d="M-180.796875 -96 L180.796875 -96 L180.796875 96 L-180.796875 96" stroke="none" stroke-width="0" fill="#ECECFF" style=""/><path d="M-180.796875 -96 C-68.38626020395044 -96, 44.024354592099115 -96, 180.796875 -96 M-180.796875 -96 C-49.729925633167596 -96, 81.33702373366481 -96, 180.796875 -96 M180.796875 -96 C180.796875 -49.21911341215272, 180.796875 -2.4382268243054455, 180.796875 96 M180.796875 -96 C180.796875 -29.661405577473246, 180.796875 36.67718884505351, 180.796875 96 M180.796875 96 C62.468477682974964 96, -55.85991963405007 96, -180.796875 96 M180.796875 96 C52.03525772299659 96, -76.72635955400682 96, -180.796875 96 M-180.796875 96 C-180.796875 40.2673963590488, -180.796875 -15.465207281902394, -180.796875 -96 M-180.796875 96 C-180.796875 20.377711339633976, -180.796875 -55.24457732073205, -180.796875 -96" stroke="#9370DB" stroke-width="1.3" fill="none" stroke-dasharray="0 0" style=""/></g><g class="annotation-group text" transform="translate(0, -72)"/><g class="label-group text" transform="translate(-62.3125, -72)"><g class="label" style="font-weight: bolder" transform="translate(0,-12)"><foreignObject width="124.625" height="24"><div xmlns="http://www.w3.org/1999/xhtml" style="display: table-cell; white-space: nowrap; line-height: 1.5; max-width: 159px; text-align: center;"><span class="nodeLabel markdown-node-label" style=""><p>EnvironmentSlot</p></span></div></foreignObject></g></g><g class="members-group text" transform="translate(-168.796875, -24)"><g class="label" style="" transform="translate(0,-12)"><foreignObject width="61.703125" height="24"><div xmlns="http://www.w3.org/1999/xhtml" style="display: table-cell; white-space: nowrap; line-height: 1.5; max-width: 120px; text-align: center;"><span class="nodeLabel markdown-node-label" style=""><p>+UUID id</p></span></div></foreignObject></g><g class="label" style="" transform="translate(0,12)"><foreignObject width="159.578125" height="24"><div xmlns="http://www.w3.org/1999/xhtml" style="display: table-cell; white-space: nowrap; line-height: 1.5; max-width: 204px; text-align: center;"><span class="nodeLabel markdown-node-label" style=""><p>+String environmentID</p></span></div></foreignObject></g><g class="label" style="" transform="translate(0,36)"><foreignObject width="100.03125" height="24"><div xmlns="http://www.w3.org/1999/xhtml" style="display: table-cell; white-space: nowrap; line-height: 1.5; max-width: 152px; text-align: center;"><span class="nodeLabel markdown-node-label" style=""><p>+Bool isActive</p></span></div></foreignObject></g></g><g class="methods-group text" transform="translate(-168.796875, 72)"><g class="label" style="" transform="translate(0,-12)"><foreignObject width="275.28125" height="24"><div xmlns="http://www.w3.org/1999/xhtml" style="display: table-cell; white-space: nowrap; line-height: 1.5; max-width: 310px; text-align: center;"><span class="nodeLabel markdown-node-label" style=""><p>+applying(isActive:) : EnvironmentSlot</p></span></div></foreignObject></g></g><g class="divider" style=""><path d="M-180.796875 -48 C-74.93268923495596 -48, 30.931496530088083 -48, 180.796875 -48 M-180.796875 -48 C-105.73253915172123 -48, -30.668203303442453 -48, 180.796875 -48" stroke="#9370DB" stroke-width="1.3" fill="none" stroke-dasharray="0 0" style=""/></g><g class="divider" style=""><path d="M-180.796875 48 C-79.18165938020931 48, 22.433556239581378 48, 180.796875 48 M-180.796875 48 C-94.70005280008455 48, -8.603230600169098 48, 180.796875 48" stroke="#9370DB" stroke-width="1.3" fill="none" stroke-dasharray="0 0" style=""/></g></g></g></g></g></svg>