<svg id="my-svg" width="100%" xmlns="http://www.w3.org/2000/svg" xmlns:xlink="http://www.w3.org/1999/xlink" class="classDiagram" style="max-width: 892.609px; background-color: white;" viewBox="0 0 892.609375 979" role="graphics-document document" aria-roledescription="class"><style>#my-svg{font-family:"trebuchet ms",verdana,arial,sans-serif;font-size:16px;fill:#333;}@keyframes edge-animation-frame{from{stroke-dashoffset:0;}}@keyframes dash{to{stroke-dashoffset:0;}}#my-svg .edge-animation-slow{stroke-dasharray:9,5!important;stroke-dashoffset:900;animation:dash 50s linear infinite;stroke-linecap:round;}#my-svg .edge-animation-fast{stroke-dasharray:9,5!important;stroke-dashoffset:900;animation:dash 20s linear infinite;stroke-linecap:round;}#my-svg .error-icon{fill:#552222;}#my-svg .error-text{fill:#552222;stroke:#552222;}#my-svg .edge-thickness-normal{stroke-width:1px;}#my-svg .edge-thickness-thick{stroke-width:3.5px;}#my-svg .edge-pattern-solid{stroke-dasharray:0;}#my-svg .edge-thickness-invisible{stroke-width:0;fill:none;}#my-svg .edge-pattern-dashed{stroke-dasharray:3;}#my-svg .edge-pattern-dotted{stroke-dasharray:2;}#my-svg .marker{fill:#333333;stroke:#333333;}#my-svg .marker.cross{stroke:#333333;}#my-svg svg{font-family:"trebuchet ms",verdana,arial,sans-serif;font-size:16px;}#my-svg p{margin:0;}#my-svg g.classGroup text{fill:#9370DB;stroke:none;font-family:"trebuchet ms",verdana,arial,sans-serif;font-size:10px;}#my-svg g.classGroup text .title{font-weight:bolder;}#my-svg .cluster-label text{fill:#333;}#my-svg .cluster-label span{color:#333;}#my-svg .cluster-label span p{background-color:transparent;}#my-svg .cluster rect{fill:#ffffde;stroke:#aaaa33;stroke-width:1px;}#my-svg .cluster text{fill:#333;}#my-svg .cluster span{color:#333;}#my-svg .nodeLabel,#my-svg .edgeLabel{color:#131300;}#my-svg .edgeLabel .label rect{fill:#ECECFF;}#my-svg .label text{fill:#131300;}#my-svg .labelBkg{background:#ECECFF;}#my-svg .edgeLabel .label span{background:#ECECFF;}#my-svg .classTitle{font-weight:bolder;}#my-svg .node rect,#my-svg .node circle,#my-svg .node ellipse,#my-svg .node polygon,#my-svg .node path{fill:#ECECFF;stroke:#9370DB;stroke-width:1px;}#my-svg .divider{stroke:#9370DB;stroke-width:1;}#my-svg g.clickable{cursor:pointer;}#my-svg g.classGroup rect{fill:#ECECFF;stroke:#9370DB;}#my-svg g.classGroup line{stroke:#9370DB;stroke-width:1;}#my-svg .classLabel .box{stroke:none;stroke-width:0;fill:#ECECFF;opacity:0.5;}#my-svg .classLabel .label{fill:#9370DB;font-size:10px;}#my-svg .relation{stroke:#333333;stroke-width:1;fill:none;}#my-svg .dashed-line{stroke-dasharray:3;}#my-svg .dotted-line{stroke-dasharray:1 2;}#my-svg #compositionStart,#my-svg .composition{fill:#333333!important;stroke:#333333!important;stroke-width:1;}#my-svg #compositionEnd,#my-svg .composition{fill:#333333!important;stroke:#333333!important;stroke-width:1;}#my-svg #dependencyStart,#my-svg .dependency{fill:#333333!important;stroke:#333333!important;stroke-width:1;}#my-svg #dependencyStart,#my-svg .dependency{fill:#333333!important;stroke:#333333!important;stroke-width:1;}#my-svg #extensionStart,#my-svg .extension{fill:transparent!important;stroke:#333333!important;stroke-width:1;}#my-svg #extensionEnd,#my-svg .extension{fill:transparent!important;stroke:#333333!important;stroke-width:1;}#my-svg #aggregationStart,#my-svg .aggregation{fill:transparent!important;stroke:#333333!important;stroke-width:1;}#my-svg #aggregationEnd,#my-svg .aggregation{fill:transparent!important;stroke:#333333!important;stroke-width:1;}#my-svg #lollipopStart,#my-svg .lollipop{fill:#ECECFF!important;stroke:#333333!important;stroke-width:1;}#my-svg #lollipopEnd,#my-svg .lollipop{fill:#ECECFF!important;stroke:#333333!important;stroke-width:1;}#my-svg .edgeTerminals{font-size:11px;line-height:initial;}#my-svg .classTitleText{text-anchor:middle;font-size:18px;fill:#333;}#my-svg .label-icon{display:inline-block;height:1em;overflow:visible;vertical-align:-0.125em;}#my-svg .node .label-icon path{fill:currentColor;stroke:revert;stroke-width:revert;}#my-svg :root{--mermaid-font-family:"trebuchet ms",verdana,arial,sans-serif;}</style><g><defs><marker id="my-svg_class-aggregationStart" class="marker aggregation class" refX="18" refY="7" markerWidth="190" markerHeight="240" orient="auto"><path d="M 18,7 L9,13 L1,7 L9,1 Z"/></marker></defs><defs><marker id="my-svg_class-aggregationEnd" class="marker aggregation class" refX="1" refY="7" markerWidth="20" markerHeight="28" orient="auto"><path d="M 18,7 L9,13 L1,7 L9,1 Z"/></marker></defs><defs><marker id="my-svg_class-extensionStart" class="marker extension class" refX="18" refY="7" markerWidth="190" markerHeight="240" orient="auto"><path d="M 1,7 L18,13 V 1 Z"/></marker></defs><defs><marker id="my-svg_class-extensionEnd" class="marker extension class" refX="1" refY="7" markerWidth="20" markerHeight="28" orient="auto"><path d="M 1,1 V 13 L18,7 Z"/></marker></defs><defs><marker id="my-svg_class-compositionStart" class="marker composition class" refX="18" refY="7" markerWidth="190" markerHeight="240" orient="auto"><path d="M 18,7 L9,13 L1,7 L9,1 Z"/></marker></defs><defs><marker id="my-svg_class-compositionEnd" class="marker composition class" refX="1" refY="7" markerWidth="20" markerHeight="28" orient="auto"><path d="M 18,7 L9,13 L1,7 L9,1 Z"/></marker></defs><defs><marker id="my-svg_class-dependencyStart" class="marker dependency class" refX="6" refY="7" markerWidth="190" markerHeight="240" orient="auto"><path d="M 5,7 L9,13 L1,7 L9,1 Z"/></marker></defs><defs><marker id="my-svg_class-dependencyEnd" class="marker dependency class" refX="13" refY="7" markerWidth="20" markerHeight="28" orient="auto"><path d="M 18,7 L9,13 L14,7 L9,1 Z"/></marker></defs><defs><marker id="my-svg_class-lollipopStart" class="marker lollipop class" refX="13" refY="7" markerWidth="190" markerHeight="240" orient="auto"><circle fill="transparent" cx="7" cy="7" r="6"/></marker></defs><defs><marker id="my-svg_class-lollipopEnd" class="marker lollipop class" refX="1" refY="7" markerWidth="190" markerHeight="240" orient="auto"><circle fill="transparent" cx="7" cy="7" r="6"/></marker></defs><g class="root"><g class="clusters"/><g class="edgePaths"><path d="M432.635,84.657L446.533,80.881C460.431,77.105,488.227,69.552,514.374,65.776C540.521,62,565.018,62,577.267,62L589.516,62" id="id_DHPackContent_Adversary_1" class="edge-thickness-normal edge-pattern-solid relation" style=";;;" data-edge="true" data-et="edge" data-id="id_DHPackContent_Adversary_1" data-points="W3sieCI6NDE1Ljk4ODI4MTI1LCJ5Ijo4OS4xNzk5MzEyMTQyMzAwN30seyJ4Ijo1MTYuMDIzNDM3NSwieSI6NjJ9LHsieCI6NTg5LjUxNTYyNSwieSI6NjJ9XQ==" marker-start="url(#my-svg_class-compositionStart)"/><path d="M432.635,197.343L446.533,201.119C460.431,204.895,488.227,212.448,514.374,216.224C540.521,220,565.018,220,577.267,220L589.516,220" id="id_DHPackContent_DaggerheartEnvironment_2" class="edge-thickness-normal edge-pattern-solid relation" style=";;;" data-edge="true" data-et="edge" data-id="id_DHPackContent_DaggerheartEnvironment_2" data-points="W3sieCI6NDE1Ljk4ODI4MTI1LCJ5IjoxOTIuODIwMDY4Nzg1NzY5OTN9LHsieCI6NTE2LjAyMzQzNzUsInkiOjIyMH0seyJ4Ijo1ODkuNTE1NjI1LCJ5IjoyMjB9XQ==" marker-start="url(#my-svg_class-compositionStart)"/><path d="M442.531,465L454.78,465C467.029,465,491.526,465,522.982,465C554.439,465,592.854,465,612.062,465L631.27,465" id="id_ContentSource_ContentFingerprint_3" class="edge-thickness-normal edge-pattern-solid relation" style=";;;" data-edge="true" data-et="edge" data-id="id_ContentSource_ContentFingerprint_3" data-points="W3sieCI6NDQyLjUzMTI1LCJ5Ijo0NjV9LHsieCI6NTE2LjAyMzQzNzUsInkiOjQ2NX0seyJ4Ijo2MzcuMjY5NTMxMjUsInkiOjQ2NX1d" marker-end="url(#my-svg_class-dependencyEnd)"/></g><g class="edgeLabels"><g class="edgeLabel" transform="translate(516.0234375, 62)"><g class="label" data-id="id_DHPackContent_Adversary_1" transform="translate(-40.484375, -12)"><foreignObject width="80.96875" height="24"><div xmlns="http://www.w3.org/1999/xhtml" class="labelBkg" style="display: table-cell; white-space: nowrap; line-height: 1.5; max-width: 200px; text-align: center;"><span class="edgeLabel"><p>adversaries</p></span></div></foreignObject></g></g><g class="edgeLabel" transform="translate(516.0234375, 220)"><g class="label" data-id="id_DHPackContent_DaggerheartEnvironment_2" transform="translate(-48.4921875, -12)"><foreignObject width="96.984375" height="24"><div xmlns="http://www.w3.org/1999/xhtml" class="labelBkg" style="display: table-cell; white-space: nowrap; line-height: 1.5; max-width: 200px; text-align: center;"><span class="edgeLabel"><p>environments</p></span></div></foreignObject></g></g><g class="edgeLabel" transform="translate(516.0234375, 465)"><g class="label" data-id="id_ContentSource_ContentFingerprint_3" transform="translate(-38.4921875, -12)"><foreignObject width="76.984375" height="24"><div xmlns="http://www.w3.org/1999/xhtml" class="labelBkg" style="display: table-cell; white-space: nowrap; line-height: 1.5; max-width: 200px; text-align: center;"><span class="edgeLabel"><p>fingerprint</p></span></div></foreignObject></g></g><g class="edgeTerminals" transform="translate(436.80899661603723, 99.06667680362818)"><g class="inner" transform="translate(-2.890625, -8.25)"><foreignObject width="5.78125" height="16.5" style="width: 9px; height: 12px;"><div xmlns="http://www.w3.org/1999/xhtml" style="display: table-cell; white-space: nowrap; line-height: 1.5;"><span class="edgeLabel"><p>1</p></span></div></foreignObject></g></g><g class="edgeTerminals" transform="translate(428.9430546339628, 211.88374558939813)"><g class="inner" transform="translate(-2.890625, -8.25)"><foreignObject width="5.78125" height="16.5" style="width: 9px; height: 12px;"><div xmlns="http://www.w3.org/1999/xhtml" style="display: table-cell; white-space: nowrap; line-height: 1.5;"><span class="edgeLabel"><p>1</p></span></div></foreignObject></g></g><g class="edgeTerminals" transform="translate(567.0156274999999, 42)"><g class="inner" transform="translate(-8.9453125, -8.25)"/><foreignObject width="17.890625" height="16.5" style="width: 36px; height: 12px;"><div xmlns="http://www.w3.org/1999/xhtml" style="display: table-cell; white-space: nowrap; line-height: 1.5;"><span class="edgeLabel"><p>0..*</p></span></div></foreignObject></g><g class="edgeTerminals" transform="translate(567.0156274999999, 200)"><g class="inner" transform="translate(-8.9453125, -8.25)"/><foreignObject width="17.890625" height="16.5" style="width: 36px; height: 12px;"><div xmlns="http://www.w3.org/1999/xhtml" style="display: table-cell; white-space: nowrap; line-height: 1.5;"><span class="edgeLabel"><p>0..*</p></span></div></foreignObject></g></g><g class="nodes"><g class="node default" id="classId-DHPackContent-0" transform="translate(225.265625, 141)"><g class="basic label-container"><path d="M-190.72265625 -72 L190.72265625 -72 L190.72265625 72 L-190.72265625 72" stroke="none" stroke-width="0" fill="#ECECFF" style=""/><path d="M-190.72265625 -72 C-67.1760941933334 -72, 56.370467863333204 -72, 190.72265625 -72 M-190.72265625 -72 C-105.68013632893435 -72, -20.637616407868705 -72, 190.72265625 -72 M190.72265625 -72 C190.72265625 -15.48163084030785, 190.72265625 41.0367383193843, 190.72265625 72 M190.72265625 -72 C190.72265625 -17.285255786851707, 190.72265625 37.42948842629659, 190.72265625 72 M190.72265625 72 C112.02396766337829 72, 33.32527907675657 72, -190.72265625 72 M190.72265625 72 C50.707452692609564 72, -89.30775086478087 72, -190.72265625 72 M-190.72265625 72 C-190.72265625 24.1663723585307, -190.72265625 -23.667255282938598, -190.72265625 -72 M-190.72265625 72 C-190.72265625 30.31765595933561, -190.72265625 -11.36468808132878, -190.72265625 -72" stroke="#9370DB" stroke-width="1.3" fill="none" stroke-dasharray="0 0" style=""/></g><g class="annotation-group text" transform="translate(0, -48)"/><g class="label-group text" transform="translate(-57.4765625, -48)"><g class="label" style="font-weight: bolder" transform="translate(0,-12)"><foreignObject width="114.953125" height="24"><div xmlns="http://www.w3.org/1999/xhtml" style="display: table-cell; white-space: nowrap; line-height: 1.5; max-width: 155px; text-align: center;"><span class="nodeLabel markdown-node-label" style=""><p>DHPackContent</p></span></div></foreignObject></g></g><g class="members-group text" transform="translate(-178.72265625, 0)"><g class="label" style="" transform="translate(0,-12)"><foreignObject width="176.0625" height="24"><div xmlns="http://www.w3.org/1999/xhtml" style="display: table-cell; white-space: nowrap; line-height: 1.5; max-width: 217px; text-align: center;"><span class="nodeLabel markdown-node-label" style=""><p>+[Adversary] adversaries</p></span></div></foreignObject></g><g class="label" style="" transform="translate(0,12)"><foreignObject width="299.96875" height="24"><div xmlns="http://www.w3.org/1999/xhtml" style="display: table-cell; white-space: nowrap; line-height: 1.5; max-width: 328px; text-align: center;"><span class="nodeLabel markdown-node-label" style=""><p>+[DaggerheartEnvironment] environments</p></span></div></foreignObject></g></g><g class="methods-group text" transform="translate(-178.72265625, 72)"/><g class="divider" style=""><path d="M-190.72265625 -24 C-107.84653921620782 -24, -24.970422182415632 -24, 190.72265625 -24 M-190.72265625 -24 C-67.31491841568413 -24, 56.092819418631734 -24, 190.72265625 -24" stroke="#9370DB" stroke-width="1.3" fill="none" stroke-dasharray="0 0" style=""/></g><g class="divider" style=""><path d="M-190.72265625 48 C-85.87948706974277 48, 18.96368211051447 48, 190.72265625 48 M-190.72265625 48 C-64.47252361845072 48, 61.777609013098555 48, 190.72265625 48" stroke="#9370DB" stroke-width="1.3" fill="none" stroke-dasharray="0 0" style=""/></g></g><g class="node default" id="classId-Adversary-1" transform="translate(737.0625, 62)"><g class="basic label-container"><path d="M-147.546875 -54 L147.546875 -54 L147.546875 54 L-147.546875 54" stroke="none" stroke-width="0" fill="#ECECFF" style=""/><path d="M-147.546875 -54 C-83.08283367082167 -54, -18.618792341643342 -54, 147.546875 -54 M-147.546875 -54 C-32.17188335685742 -54, 83.20310828628516 -54, 147.546875 -54 M147.546875 -54 C147.546875 -15.090994054665472, 147.546875 23.818011890669055, 147.546875 54 M147.546875 -54 C147.546875 -30.061092845316256, 147.546875 -6.122185690632513, 147.546875 54 M147.546875 54 C59.57044763113015 54, -28.4059797377397 54, -147.546875 54 M147.546875 54 C83.94508258698131 54, 20.34329017396263 54, -147.546875 54 M-147.546875 54 C-147.546875 24.35338786163399, -147.546875 -5.293224276732019, -147.546875 -54 M-147.546875 54 C-147.546875 31.41862337947111, -147.546875 8.837246758942221, -147.546875 -54" stroke="#9370DB" stroke-width="1.3" fill="none" stroke-dasharray="0 0" style=""/></g><g class="annotation-group text" transform="translate(-135.546875, -30)"><g class="label" style="" transform="translate(0,-12)"><foreignObject width="271.09375" height="24"><div xmlns="http://www.w3.org/1999/xhtml" style="display: table-cell; white-space: nowrap; line-height: 1.5; max-width: 295px; text-align: center;"><span class="nodeLabel markdown-node-label" style=""><p>«catalog type — see catalog diagram»</p></span></div></foreignObject></g></g><g class="label-group text" transform="translate(-37.34375, -6)"><g class="label" style="font-weight: bolder" transform="translate(0,-12)"><foreignObject width="74.6875" height="24"><div xmlns="http://www.w3.org/1999/xhtml" style="display: table-cell; white-space: nowrap; line-height: 1.5; max-width: 117px; text-align: center;"><span class="nodeLabel markdown-node-label" style=""><p>Adversary</p></span></div></foreignObject></g></g><g class="members-group text" transform="translate(-135.546875, 42)"/><g class="methods-group text" transform="translate(-135.546875, 72)"/><g class="divider" style=""><path d="M-147.546875 18 C-86.56058311077426 18, -25.57429122154852 18, 147.546875 18 M-147.546875 18 C-48.07893503105096 18, 51.38900493789808 18, 147.546875 18" stroke="#9370DB" stroke-width="1.3" fill="none" stroke-dasharray="0 0" style=""/></g><g class="divider" style=""><path d="M-147.546875 36 C-69.80691592128899 36, 7.93304315742202 36, 147.546875 36 M-147.546875 36 C-77.58564855556355 36, -7.624422111127103 36, 147.546875 36" stroke="#9370DB" stroke-width="1.3" fill="none" stroke-dasharray="0 0" style=""/></g></g><g class="node default" id="classId-DaggerheartEnvironment-2" transform="translate(737.0625, 220)"><g class="basic label-container"><path d="M-147.546875 -54 L147.546875 -54 L147.546875 54 L-147.546875 54" stroke="none" stroke-width="0" fill="#ECECFF" style=""/><path d="M-147.546875 -54 C-55.306715057914786 -54, 36.93344488417043 -54, 147.546875 -54 M-147.546875 -54 C-72.42134969946068 -54, 2.7041756010786457 -54, 147.546875 -54 M147.546875 -54 C147.546875 -16.760698281176587, 147.546875 20.478603437646825, 147.546875 54 M147.546875 -54 C147.546875 -24.261257306499292, 147.546875 5.4774853870014155, 147.546875 54 M147.546875 54 C38.284496124545925 54, -70.97788275090815 54, -147.546875 54 M147.546875 54 C32.802291289009545 54, -81.94229242198091 54, -147.546875 54 M-147.546875 54 C-147.546875 28.282778138569252, -147.546875 2.565556277138505, -147.546875 -54 M-147.546875 54 C-147.546875 30.01576682022682, -147.546875 6.031533640453638, -147.546875 -54" stroke="#9370DB" stroke-width="1.3" fill="none" stroke-dasharray="0 0" style=""/></g><g class="annotation-group text" transform="translate(-135.546875, -30)"><g class="label" style="" transform="translate(0,-12)"><foreignObject width="271.09375" height="24"><div xmlns="http://www.w3.org/1999/xhtml" style="display: table-cell; white-space: nowrap; line-height: 1.5; max-width: 295px; text-align: center;"><span class="nodeLabel markdown-node-label" style=""><p>«catalog type — see catalog diagram»</p></span></div></foreignObject></g></g><g class="label-group text" transform="translate(-93.8046875, -6)"><g class="label" style="font-weight: bolder" transform="translate(0,-12)"><foreignObject width="187.609375" height="24"><div xmlns="http://www.w3.org/1999/xhtml" style="display: table-cell; white-space: nowrap; line-height: 1.5; max-width: 213px; text-align: center;"><span class="nodeLabel markdown-node-label" style=""><p>DaggerheartEnvironment</p></span></div></foreignObject></g></g><g class="members-group text" transform="translate(-135.546875, 42)"/><g class="methods-group text" transform="translate(-135.546875, 72)"/><g class="divider" style=""><path d="M-147.546875 18 C-43.66625367644136 18, 60.214367647117285 18, 147.546875 18 M-147.546875 18 C-43.291981884896956 18, 60.96291123020609 18, 147.546875 18" stroke="#9370DB" stroke-width="1.3" fill="none" stroke-dasharray="0 0" style=""/></g><g class="divider" style=""><path d="M-147.546875 36 C-57.7693998493757 36, 32.008075301248596 36, 147.546875 36 M-147.546875 36 C-67.26544295151541 36, 13.015989096969179 36, 147.546875 36" stroke="#9370DB" stroke-width="1.3" fill="none" stroke-dasharray="0 0" style=""/></g></g><g class="node default" id="classId-ContentSource-3" transform="translate(225.265625, 465)"><g class="basic label-container"><path d="M-217.265625 -192 L217.265625 -192 L217.265625 192 L-217.265625 192" stroke="none" stroke-width="0" fill="#ECECFF" style=""/><path d="M-217.265625 -192 C-109.99862323368748 -192, -2.731621467374964 -192, 217.265625 -192 M-217.265625 -192 C-49.352336970789565 -192, 118.56095105842087 -192, 217.265625 -192 M217.265625 -192 C217.265625 -75.93881439527104, 217.265625 40.122371209457924, 217.265625 192 M217.265625 -192 C217.265625 -42.10041737598954, 217.265625 107.79916524802093, 217.265625 192 M217.265625 192 C128.81879120280078 192, 40.37195740560156 192, -217.265625 192 M217.265625 192 C74.88848578005982 192, -67.48865343988035 192, -217.265625 192 M-217.265625 192 C-217.265625 85.32717197453289, -217.265625 -21.345656050934224, -217.265625 -192 M-217.265625 192 C-217.265625 114.65173738468812, -217.265625 37.30347476937624, -217.265625 -192" stroke="#9370DB" stroke-width="1.3" fill="none" stroke-dasharray="0 0" style=""/></g><g class="annotation-group text" transform="translate(0, -168)"/><g class="label-group text" transform="translate(-55.265625, -168)"><g class="label" style="font-weight: bolder" transform="translate(0,-12)"><foreignObject width="110.53125" height="24"><div xmlns="http://www.w3.org/1999/xhtml" style="display: table-cell; white-space: nowrap; line-height: 1.5; max-width: 145px; text-align: center;"><span class="nodeLabel markdown-node-label" style=""><p>ContentSource</p></span></div></foreignObject></g></g><g class="members-group text" transform="translate(-205.265625, -120)"><g class="label" style="" transform="translate(0,-12)"><foreignObject width="61.703125" height="24"><div xmlns="http://www.w3.org/1999/xhtml" style="display: table-cell; white-space: nowrap; line-height: 1.5; max-width: 120px; text-align: center;"><span class="nodeLabel markdown-node-label" style=""><p>+UUID id</p></span></div></foreignObject></g><g class="label" style="" transform="translate(0,12)"><foreignObject width="151.1875" height="24"><div xmlns="http://www.w3.org/1999/xhtml" style="display: table-cell; white-space: nowrap; line-height: 1.5; max-width: 198px; text-align: center;"><span class="nodeLabel markdown-node-label" style=""><p>+String? displayName</p></span></div></foreignObject></g><g class="label" style="" transform="translate(0,36)"><foreignObject width="66.5625" height="24"><div xmlns="http://www.w3.org/1999/xhtml" style="display: table-cell; white-space: nowrap; line-height: 1.5; max-width: 124px; text-align: center;"><span class="nodeLabel markdown-node-label" style=""><p>+URL? url</p></span></div></foreignObject></g><g class="label" style="" transform="translate(0,60)"><foreignObject width="106.15625" height="24"><div xmlns="http://www.w3.org/1999/xhtml" style="display: table-cell; white-space: nowrap; line-height: 1.5; max-width: 152px; text-align: center;"><span class="nodeLabel markdown-node-label" style=""><p>+Date addedAt</p></span></div></foreignObject></g><g class="label" style="" transform="translate(0,84)"><foreignObject width="151.875" height="24"><div xmlns="http://www.w3.org/1999/xhtml" style="display: table-cell; white-space: nowrap; line-height: 1.5; max-width: 194px; text-align: center;"><span class="nodeLabel markdown-node-label" style=""><p>+Date? lastFetchedAt</p></span></div></foreignObject></g><g class="label" style="" transform="translate(0,108)"><foreignObject width="232.578125" height="24"><div xmlns="http://www.w3.org/1999/xhtml" style="display: table-cell; white-space: nowrap; line-height: 1.5; max-width: 266px; text-align: center;"><span class="nodeLabel markdown-node-label" style=""><p>+ContentFingerprint? fingerprint</p></span></div></foreignObject></g><g class="label" style="" transform="translate(0,132)"><foreignObject width="173.59375" height="24"><div xmlns="http://www.w3.org/1999/xhtml" style="display: table-cell; white-space: nowrap; line-height: 1.5; max-width: 212px; text-align: center;"><span class="nodeLabel markdown-node-label" style=""><p>+Int consecutiveFailures</p></span></div></foreignObject></g><g class="label" style="" transform="translate(0,156)"><foreignObject width="140.734375" height="24"><div xmlns="http://www.w3.org/1999/xhtml" style="display: table-cell; white-space: nowrap; line-height: 1.5; max-width: 189px; text-align: center;"><span class="nodeLabel markdown-node-label" style=""><p>+Bool isLocalImport</p></span></div></foreignObject></g></g><g class="methods-group text" transform="translate(-205.265625, 96)"><g class="label" style="" transform="translate(0,-12)"><foreignObject width="193.5625" height="24"><div xmlns="http://www.w3.org/1999/xhtml" style="display: table-cell; white-space: nowrap; line-height: 1.5; max-width: 230px; text-align: center;"><span class="nodeLabel markdown-node-label" style=""><p>+Bool isThrottled(at: Date)</p></span></div></foreignObject></g><g class="label" style="" transform="translate(0,12)"><foreignObject width="245.953125" height="24"><div xmlns="http://www.w3.org/1999/xhtml" style="display: table-cell; white-space: nowrap; line-height: 1.5; max-width: 277px; text-align: center;"><span class="nodeLabel markdown-node-label" style=""><p>+Date nextAllowedFetch(at: Date)</p></span></div></foreignObject></g><g class="label" style="" transform="translate(0,36)"><foreignObject width="306.34375" height="24"><div xmlns="http://www.w3.org/1999/xhtml" style="display: table-cell; white-space: nowrap; line-height: 1.5; max-width: 330px; text-align: center;"><span class="nodeLabel markdown-node-label" style=""><p>+ContentSource recordingFailure(at: Date)</p></span></div></foreignObject></g><g class="label" style="" transform="translate(0,60)"><foreignObject width="355.265625" height="24"><div xmlns="http://www.w3.org/1999/xhtml" style="display: table-cell; white-space: nowrap; line-height: 1.5; max-width: 374px; text-align: center;"><span class="nodeLabel markdown-node-label" style=""><p>+ContentSource recordingSuccess(fingerprint:at:)</p></span></div></foreignObject></g></g><g class="divider" style=""><path d="M-217.265625 -144 C-79.43252394778315 -144, 58.400577104433694 -144, 217.265625 -144 M-217.265625 -144 C-89.86482977695927 -144, 37.53596544608146 -144, 217.265625 -144" stroke="#9370DB" stroke-width="1.3" fill="none" stroke-dasharray="0 0" style=""/></g><g class="divider" style=""><path d="M-217.265625 72 C-52.04453234630387 72, 113.17656030739226 72, 217.265625 72 M-217.265625 72 C-49.7930509012194 72, 117.6795231975612 72, 217.265625 72" stroke="#9370DB" stroke-width="1.3" fill="none" stroke-dasharray="0 0" style=""/></g></g><g class="node default" id="classId-ContentFingerprint-4" transform="translate(737.0625, 465)"><g class="basic label-container"><path d="M-99.79296875 -72 L99.79296875 -72 L99.79296875 72 L-99.79296875 72" stroke="none" stroke-width="0" fill="#ECECFF" style=""/><path d="M-99.79296875 -72 C-48.676106515120956 -72, 2.440755719758087 -72, 99.79296875 -72 M-99.79296875 -72 C-26.29249792930146 -72, 47.20797289139708 -72, 99.79296875 -72 M99.79296875 -72 C99.79296875 -16.966177526614217, 99.79296875 38.067644946771566, 99.79296875 72 M99.79296875 -72 C99.79296875 -36.30400322428495, 99.79296875 -0.6080064485698955, 99.79296875 72 M99.79296875 72 C40.64410242543985 72, -18.504763899120306 72, -99.79296875 72 M99.79296875 72 C44.68478046919294 72, -10.423407811614126 72, -99.79296875 72 M-99.79296875 72 C-99.79296875 22.072341950266576, -99.79296875 -27.855316099466847, -99.79296875 -72 M-99.79296875 72 C-99.79296875 15.37146535399608, -99.79296875 -41.25706929200784, -99.79296875 -72" stroke="#9370DB" stroke-width="1.3" fill="none" stroke-dasharray="0 0" style=""/></g><g class="annotation-group text" transform="translate(0, -48)"/><g class="label-group text" transform="translate(-71.9765625, -48)"><g class="label" style="font-weight: bolder" transform="translate(0,-12)"><foreignObject width="143.953125" height="24"><div xmlns="http://www.w3.org/1999/xhtml" style="display: table-cell; white-space: nowrap; line-height: 1.5; max-width: 173px; text-align: center;"><span class="nodeLabel markdown-node-label" style=""><p>ContentFingerprint</p></span></div></foreignObject></g></g><g class="members-group text" transform="translate(-87.79296875, 0)"><g class="label" style="" transform="translate(0,-12)"><foreignObject width="103.609375" height="24"><div xmlns="http://www.w3.org/1999/xhtml" style="display: table-cell; white-space: nowrap; line-height: 1.5; max-width: 152px; text-align: center;"><span class="nodeLabel markdown-node-label" style=""><p>+String sha256</p></span></div></foreignObject></g><g class="label" style="" transform="translate(0,12)"><foreignObject width="92.1875" height="24"><div xmlns="http://www.w3.org/1999/xhtml" style="display: table-cell; white-space: nowrap; line-height: 1.5; max-width: 140px; text-align: center;"><span class="nodeLabel markdown-node-label" style=""><p>+String? etag</p></span></div></foreignObject></g></g><g class="methods-group text" transform="translate(-87.79296875, 72)"/><g class="divider" style=""><path d="M-99.79296875 -24 C-24.913741153350756 -24, 49.96548644329849 -24, 99.79296875 -24 M-99.79296875 -24 C-33.692246268253726 -24, 32.40847621349255 -24, 99.79296875 -24" stroke="#9370DB" stroke-width="1.3" fill="none" stroke-dasharray="0 0" style=""/></g><g class="divider" style=""><path d="M-99.79296875 48 C-24.890955516840833 48, 50.011057716318334 48, 99.79296875 48 M-99.79296875 48 C-45.47775642608286 48, 8.837455897834275 48, 99.79296875 48" stroke="#9370DB" stroke-width="1.3" fill="none" stroke-dasharray="0 0" style=""/></g></g><g class="node default" id="classId-ContentStoreError-5" transform="translate(225.265625, 839)"><g class="basic label-container"><path d="M-100.53515625 -132 L100.53515625 -132 L100.53515625 132 L-100.53515625 132" stroke="none" stroke-width="0" fill="#ECECFF" style=""/><path d="M-100.53515625 -132 C-43.40393589263351 -132, 13.727284464732975 -132, 100.53515625 -132 M-100.53515625 -132 C-54.68989605284672 -132, -8.84463585569344 -132, 100.53515625 -132 M100.53515625 -132 C100.53515625 -36.06299715329742, 100.53515625 59.87400569340517, 100.53515625 132 M100.53515625 -132 C100.53515625 -64.0320147404625, 100.53515625 3.935970519074999, 100.53515625 132 M100.53515625 132 C20.87117352324924 132, -58.79280920350152 132, -100.53515625 132 M100.53515625 132 C48.60693393396009 132, -3.321288382079814 132, -100.53515625 132 M-100.53515625 132 C-100.53515625 62.92610837190627, -100.53515625 -6.147783256187466, -100.53515625 -132 M-100.53515625 132 C-100.53515625 73.94501661205595, -100.53515625 15.890033224111889, -100.53515625 -132" stroke="#9370DB" stroke-width="1.3" fill="none" stroke-dasharray="0 0" style=""/></g><g class="annotation-group text" transform="translate(-53.9296875, -108)"><g class="label" style="" transform="translate(0,-12)"><foreignObject width="107.859375" height="24"><div xmlns="http://www.w3.org/1999/xhtml" style="display: table-cell; white-space: nowrap; line-height: 1.5; max-width: 146px; text-align: center;"><span class="nodeLabel markdown-node-label" style=""><p>«enumeration»</p></span></div></foreignObject></g></g><g class="label-group text" transform="translate(-68.9453125, -84)"><g class="label" style="font-weight: bolder" transform="translate(0,-12)"><foreignObject width="137.890625" height="24"><div xmlns="http://www.w3.org/1999/xhtml" style="display: table-cell; white-space: nowrap; line-height: 1.5; max-width: 168px; text-align: center;"><span class="nodeLabel markdown-node-label" style=""><p>ContentStoreError</p></span></div></foreignObject></g></g><g class="members-group text" transform="translate(-88.53515625, -36)"><g class="label" style="" transform="translate(0,-12)"><foreignObject width="105.53125" height="24"><div xmlns="http://www.w3.org/1999/xhtml" style="display: table-cell; white-space: nowrap; line-height: 1.5; max-width: 142px; text-align: center;"><span class="nodeLabel markdown-node-label" style=""><p>fetchThrottled</p></span></div></foreignObject></g><g class="label" style="" transform="translate(0,12)"><foreignObject width="94.40625" height="24"><div xmlns="http://www.w3.org/1999/xhtml" style="display: table-cell; white-space: nowrap; line-height: 1.5; max-width: 136px; text-align: center;"><span class="nodeLabel markdown-node-label" style=""><p>networkError</p></span></div></foreignObject></g><g class="label" style="" transform="translate(0,36)"><foreignObject width="108.125" height="24"><div xmlns="http://www.w3.org/1999/xhtml" style="display: table-cell; white-space: nowrap; line-height: 1.5; max-width: 149px; text-align: center;"><span class="nodeLabel markdown-node-label" style=""><p>decodingFailed</p></span></div></foreignObject></g><g class="label" style="" transform="translate(0,60)"><foreignObject width="81.484375" height="24"><div xmlns="http://www.w3.org/1999/xhtml" style="display: table-cell; white-space: nowrap; line-height: 1.5; max-width: 123px; text-align: center;"><span class="nodeLabel markdown-node-label" style=""><p>writeFailed</p></span></div></foreignObject></g><g class="label" style="" transform="translate(0,84)"><foreignObject width="76" height="24"><div xmlns="http://www.w3.org/1999/xhtml" style="display: table-cell; white-space: nowrap; line-height: 1.5; max-width: 118px; text-align: center;"><span class="nodeLabel markdown-node-label" style=""><p>readFailed</p></span></div></foreignObject></g><g class="label" style="" transform="translate(0,108)"><foreignObject width="104.796875" height="24"><div xmlns="http://www.w3.org/1999/xhtml" style="display: table-cell; white-space: nowrap; line-height: 1.5; max-width: 145px; text-align: center;"><span class="nodeLabel markdown-node-label" style=""><p>invalidContent</p></span></div></foreignObject></g></g><g class="methods-group text" transform="translate(-88.53515625, 132)"/><g class="divider" style=""><path d="M-100.53515625 -60 C-41.76684255893829 -60, 17.001471132123413 -60, 100.53515625 -60 M-100.53515625 -60 C-27.863687617255465 -60, 44.80778101548907 -60, 100.53515625 -60" stroke="#9370DB" stroke-width="1.3" fill="none" stroke-dasharray="0 0" style=""/></g><g class="divider" style=""><path d="M-100.53515625 108 C-22.556095368387815 108, 55.42296551322437 108, 100.53515625 108 M-100.53515625 108 C-44.94122758645558 108, 10.652701077088835 108, 100.53515625 108" stroke="#9370DB" stroke-width="1.3" fill="none" stroke-dasharray="0 0" style=""/></g></g></g></g></g></svg>