<svg id="my-svg" width="100%" xmlns="http://www.w3.org/2000/svg" xmlns:xlink="http://www.w3.org/1999/xlink" class="classDiagram" style="max-width: 892.609px; background-color: white;" viewBox="0 0 892.609375 979" role="graphics-document document" aria-roledescription="class"><style>#my-svg{font-family:"trebuchet ms",verdana,arial,sans-serif;font-size:16px;fill:#333;}@keyframes edge-animation-frame{from{stroke-dashoffset:0;}}@keyframes dash{to{stroke-dashoffset:0;}}#my-svg .edge-animation-slow{stroke-dasharray:9,5!important;stroke-dashoffset:900;animation:dash 50s linear infinite;stroke-linecap:round;}#my-svg .edge-animation-fast{stroke-dasharray:9,5!important;stroke-dashoffset:900;animation:dash 20s linear infinite;stroke-linecap:round;}#my-svg .error-icon{fill:#552222;}#my-svg .error-text{fill:#552222;stroke:#552222;}#my-svg .edge-thickness-normal{stroke-width:1px;}#my-svg .edge-thickness-thick{stroke-width:3.5px;}#my-svg .edge-pattern-solid{stroke-dasharray:0;}#my-svg .edge-thickness-invisible{stroke-width:0;fill:none;}#my-svg .edge-pattern-dashed{stroke-dasharray:3;}#my-svg .edge-pattern-dotted{stroke-dasharray:2;}#my-svg .marker{fill:#333333;stroke:#333333;}#my-svg .marker.cross{stroke:#333333;}#my-svg svg{font-family:"trebuchet ms",verdana,arial,sans-serif;font-size:16px;}#my-svg p{margin:0;}#my-svg g.classGroup text{fill:#9370DB;stroke:none;font-family:"trebuchet ms",verdana,arial,sans-serif;font-size:10px;}#my-svg g.classGroup text .title{font-weight:bolder;}#my-svg .cluster-label text{fill:#333;}#my-svg .cluster-label span{color:#333;}#my-svg .cluster-label span p{background-color:transparent;}#my-svg .cluster rect{fill:#ffffde;stroke:#aaaa33;stroke-width:1px;}#my-svg .cluster text{fill:#333;}#my-svg .cluster span{color:#333;}#my-svg .nodeLabel,#my-svg .edgeLabel{color:#131300;}#my-svg .edgeLabel .label rect{fill:#ECECFF;}#my-svg .label text{fill:#131300;}#my-svg .labelBkg{background:#ECECFF;}#my-svg .edgeLabel .label span{background:#ECECFF;}#my-svg .classTitle{font-weight:bolder;}#my-svg .node rect,#my-svg .node circle,#my-svg .node ellipse,#my-svg .node polygon,#my-svg .node path{fill:#ECECFF;stroke:#9370DB;stroke-width:1px;}#my-svg .divider{stroke:#9370DB;stroke-width:1;}#my-svg g.clickable{cursor:pointer;}#my-svg g.classGroup rect{fill:#ECECFF;stroke:#9370DB;}#my-svg g.classGroup line{stroke:#9370DB;stroke-width:1;}#my-svg .classLabel .box{stroke:none;stroke-width:0;fill:#ECECFF;opacity:0.5;}#my-svg .classLabel .label{fill:#9370DB;font-size:10px;}#my-svg .relation{stroke:#333333;stroke-width:1;fill:none;}#my-svg .dashed-line{stroke-dasharray:3;}#my-svg .dotted-line{stroke-dasharray:1 2;}#my-svg #compositionStart,#my-svg .composition{fill:#333333!important;stroke:#333333!important;stroke-width:1;}#my-svg #compositionEnd,#my-svg .composition{fill:#333333!important;stroke:#333333!important;stroke-width:1;}#my-svg #dependencyStart,#my-svg .dependency{fill:#333333!important;stroke:#333333!important;stroke-width:1;}#my-svg #dependencyStart,#my-svg .dependency{fill:#333333!important;stroke:#333333!important;stroke-width:1;}#my-svg #extensionStart,#my-svg .extension{fill:transparent!important;stroke:#333333!important;stroke-width:1;}#my-svg #extensionEnd,#my-svg .extension{fill:transparent!important;stroke:#333333!important;stroke-width:1;}#my-svg #aggregationStart,#my-svg .aggregation{fill:transparent!important;stroke:#333333!important;stroke-width:1;}#my-svg #aggregationEnd,#my-svg .aggregation{fill:transparent!important;stroke:#333333!important;stroke-width:1;}#my-svg #lollipopStart,#my-svg .lollipop{fill:#ECECFF!important;stroke:#333333!important;stroke-width:1;}#my-svg #lollipopEnd,#my-svg .lollipop{fill:#ECECFF!important;stroke:#333333!important;stroke-width:1;}#my-svg .edgeTerminals{font-size:11px;line-height:initial;}#my-svg .classTitleText{text-anchor:middle;font-size:18px;fill:#333;}#my-svg .label-icon{display:inline-block;height:1em;overflow:visible;vertical-align:-0.125em;}#my-svg .node .label-icon path{fill:currentColor;stroke:revert;stroke-width:revert;}#my-svg :root{--mermaid-font-family:"trebuchet ms",verdana,arial,sans-serif;}</style><g><defs><marker id="my-svg_class-aggregationStart" class="marker aggregation class" refX="18" refY="7" markerWidth="190" markerHeight="240" orient="auto"><path d="M 18,7 L9,13 L1,7 L9,1 Z"/></marker></defs><defs><marker id="my-svg_class-aggregationEnd" class="marker aggregation class" refX="1" refY="7" markerWidth="20" markerHeight="28" orient="auto"><path d="M 18,7 L9,13 L1,7 L9,1 Z"/></marker></defs><defs><marker id="my-svg_class-extensionStart" class="marker extension class" refX="18" refY="7" markerWidth="190" markerHeight="240" orient="auto"><path d="M 1,7 L18,13 V 1 Z"/></marker></defs><defs><marker id="my-svg_class-extensionEnd" class="marker extension class" refX="1" refY="7" markerWidth="20" markerHeight="28" orient="auto"><path d="M 1,1 V 13 L18,7 Z"/></marker></defs><defs><marker id="my-svg_class-compositionStart" class="marker composition class" refX="18" refY="7" markerWidth="190" markerHeight="240" orient="auto"><path d="M 18,7 L9,13 L1,7 L9,1 Z"/></marker></defs><defs><marker id="my-svg_class-compositionEnd" class="marker composition class" refX="1" refY="7" markerWidth="20" markerHeight="28" orient="auto"><path d="M 18,7 L9,13 L1,7 L9,1 Z"/></marker></defs><defs><marker id="my-svg_class-dependencyStart" class="marker dependency class" refX="6" refY="7" markerWidth="190" markerHeight="240" orient="auto"><path d="M 5,7 L9,13 L1,7 L9,1 Z"/></marker></defs><defs><marker id="my-svg_class-dependencyEnd" class="marker dependency class" refX="13" refY="7" markerWidth="20" markerHeight="28" orient="auto"><path d="M 18,7 L9,13 L14,7 L9,1 Z"/></marker></defs><defs><marker id="my-svg_class-lollipopStart" class="marker lollipop class" refX="13" refY="7" markerWidth="190" markerHeight="240" orient="auto"><circle fill="transparent" cx="7" cy="7" r="6"/></marker></defs><defs><marker id="my-svg_class-lollipopEnd" class="marker lollipop class" refX="1" refY="7" markerWidth="190" markerHeight="240" orient="auto"><circle fill="transparent" cx="7" cy="7" r="6"/></marker></defs><g class="root"><g class="clusters"/><g class="edgePaths"><path d="M432.635,84.657L446.533,80.881C460.431,77.105,488.227,69.552,514.374,65.776C540.521,62,565.018,62,577.267,62L589.516,62" id="id_DHPackContent_Adversary_1" class="edge-thickness-normal edge-pattern-solid relation" style=";;;" data-edge="true" data-et="edge" data-id="id_DHPackContent_Adversary_1" data-points="W3sieCI6NDE1Ljk4ODI4MTI1LCJ5Ijo4OS4xNzk5MzEyMTQyMzAwN30seyJ4Ijo1MTYuMDIzNDM3NSwieSI6NjJ9LHsieCI6NTg5LjUxNTYyNSwieSI6NjJ9XQ==" marker-start="url(#my-svg_class-compositionStart)"/><path d="M432.635,197.343L446.533,201.119C460.431,204.895,488.227,212.448,514.374,216.224C540.521,220,565.018,220,577.267,220L589.516,220" id="id_DHPackContent_DaggerheartEnvironment_2" class="edge-thickness-normal edge-pattern-solid relation" style=";;;" data-edge="true" data-et="edge" data-id="id_DHPackContent_DaggerheartEnvironment_2" data-points="W3sieCI6NDE1Ljk4ODI4MTI1LCJ5IjoxOTIuODIwMDY4Nzg1NzY5OTN9LHsieCI6NTE2LjAyMzQzNzUsInkiOjIyMH0seyJ4Ijo1ODkuNTE1NjI1LCJ5IjoyMjB9XQ==" marker-start="url(#my-svg_class-compositionStart)"/><path d="M442.531,465L454.78,465C467.029,465,491.526,465,522.982,465C554.439,465,592.854,465,612.062,465L631.27,465" id="id_ContentSource_ContentFingerprint_3" class="edge-thickness-normal edge-pattern-solid relation" style=";;;" data-edge="true" data-et="edge" data-id="id_ContentSource_ContentFingerprint_3" data-points="W3sieCI6NDQyLjUzMTI1LCJ5Ijo0NjV9LHsieCI6NTE2LjAyMzQzNzUsInkiOjQ2NX0seyJ4Ijo2MzcuMjY5NTMxMjUsInkiOjQ2NX1d" marker-end="url(#my-svg_class-dependencyEnd)"/></g><g class="edgeLabels"><g class="edgeLabel" transform="translate(516.0234375, 62)"><g class="label" data-id="id_DHPackContent_Adversary_1" transform="translate(-40.484375, -12)"><foreignObject width="80.96875" height="24"><div xmlns="http://www.w3.org/1999/xhtml" class="labelBkg" style="display: table-cell; white-space: nowrap; line-height: 1.5; max-width: 200px; text-align: center;"><span class="edgeLabel"><p>adversaries</p></span></div></foreignObject></g></g><g class="edgeLabel" transform="translate(516.0234375, 220)"><g class="label" data-id="id_DHPackContent_DaggerheartEnvironment_2" transform="translate(-48.4921875, -12)"><foreignObject width="96.984375" height="24"><div xmlns="http://www.w3.org/1999/xhtml" class="labelBkg" style="display: table-cell; white-space: nowrap; line-height: 1.5; max-width: 200px; text-align: center;"><span class="edgeLabel"><p>environments</p></span></div></foreignObject></g></g><g class="edgeLabel" transform="translate(516.0234375, 465)"><g class="label" data-id="id_ContentSource_ContentFingerprint_3" transform="translate(-38.4921875, -12)"><foreignObject width="76.984375" height="24"><div xmlns="http://www.w3.org/1999/xhtml" class="labelBkg" style="display: table-cell; white-space: nowrap; line-height: 1.5; max-width: 200px; text-align: center;"><span class="edgeLabel"><p>fingerprint</p></span></div></foreignObject></g></g><g class="edgeTerminals" transform="translate(436.80899661603723, 99.06667680362818)"><g class="inner" transform="translate(-2.890625, -8.25)"><foreignObject width="5.78125" height="16.5" style="width: 9px; height: 12px;"><div xmlns="http://www.w3.org/1999/xhtml" style="display: table-cell; white-space: nowrap; line-height: 1.5;"><span class="edgeLabel"><p>1</p></span></div></foreignObject></g></g><g class="edgeTerminals" transform="translate(428.9430546339628, 211.88374558939813)"><g class="inner" transform="translate(-2.890625, -8.25)"><foreignObject width="5.78125" height="16.5" style="width: 9px; height: 12px;"><div xmlns="http://www.w3.org/1999/xhtml" style="display: table-cell; white-space: nowrap; line-height: 1.5;"><span class="edgeLabel"><p>1</p></span></div></foreignObject></g></g><g class="edgeTerminals" transform="translate(567.0156274999999, 42)"><g class="inner" transform="translate(-8.9453125, -8.25)"/><foreignObject width="17.890625" height="16.5" style="width: 36px; height: 12px;"><div xmlns="http://www.w3.org/1999/xhtml" style="display: table-cell; white-space: nowrap; line-height: 1.5;"><span class="edgeLabel"><p>0..*</p></span></div></foreignObject></g><g class="edgeTerminals" transform="translate(567.0156274999999, 200)"><g class="inner" transform="translate(-8.9453125, -8.25)"/><foreignObject width="17.890625" height="16.5" style="width: 36px; height: 12px;"><div xmlns="http://www.w3.org/1999/xhtml" style="display: table-cell; white-space: nowrap; line-height: 1.5;"><span class="edgeLabel"><p>0..*</p></span></div></foreignObject></g></g><g class="nodes"><g class="node default" id="classId-DHPackContent-0" transform="translate(225.265625, 141)"><g class="basic label-container"><path d="M-190.72265625 -72 L190.72265625 -72 L190.72265625 72 L-190.72265625 72" stroke="none" stroke-width="0" fill="#ECECFF" style=""/><path d="M-190.72265625 -72 C-103.20570213575165 -72, -15.6887480215033 -72, 190.72265625 -72 M-190.72265625 -72 C-89.68088370135773 -72, 11.360888847284542 -72, 190.72265625 -72 M190.72265625 -72 C190.72265625 -35.808354373457306, 190.72265625 0.3832912530853889, 190.72265625 72 M190.72265625 -72 C190.72265625 -37.186565590197496, 190.72265625 -2.373131180394992, 190.72265625 72 M190.72265625 72 C48.59905461209277 72, -93.52454702581446 72, -190.72265625 72 M190.72265625 72 C89.16559455311635 72, -12.3914671437673 72, -190.72265625 72 M-190.72265625 72 C-190.72265625 42.681097333291746, -190.72265625 13.362194666583491, -190.72265625 -72 M-190.72265625 72 C-190.72265625 33.765569036546026, -190.72265625 -4.468861926907948, -190.72265625 -72" stroke="#9370DB" stroke-width="1.3" fill="none" stroke-dasharray="0 0" style=""/></g><g class="annotation-group text" transform="translate(0, -48)"/><g class="label-group text" transform="translate(-57.4765625, -48)"><g class="label" style="font-weight: bolder" transform="translate(0,-12)"><foreignObject width="114.953125" height="24"><div xmlns="http://www.w3.org/1999/xhtml" style="display: table-cell; white-space: nowrap; line-height: 1.5; max-width: 155px; text-align: center;"><span class="nodeLabel markdown-node-label" style=""><p>DHPackContent</p></span></div></foreignObject></g></g><g class="members-group text" transform="translate(-178.72265625, 0)"><g class="label" style="" transform="translate(0,-12)"><foreignObject width="176.0625" height="24"><div xmlns="http://www.w3.org/1999/xhtml" style="display: table-cell; white-space: nowrap; line-height: 1.5; max-width: 217px; text-align: center;"><span class="nodeLabel markdown-node-label" style=""><p>+[Adversary] adversaries</p></span></div></foreignObject></g><g class="label" style="" transform="translate(0,12)"><foreignObject width="299.96875" height="24"><div xmlns="http://www.w3.org/1999/xhtml" style="display: table-cell; white-space: nowrap; line-height: 1.5; max-width: 328px; text-align: center;"><span class="nodeLabel markdown-node-label" style=""><p>+[DaggerheartEnvironment] environments</p></span></div></foreignObject></g></g><g class="methods-group text" transform="translate(-178.72265625, 72)"/><g class="divider" style=""><path d="M-190.72265625 -24 C-87.2650502430082 -24, 16.19255576398359 -24, 190.72265625 -24 M-190.72265625 -24 C-109.21637500420657 -24, -27.710093758413137 -24, 190.72265625 -24" stroke="#9370DB" stroke-width="1.3" fill="none" stroke-dasharray="0 0" style=""/></g><g class="divider" style=""><path d="M-190.72265625 48 C-64.86834680817783 48, 60.985962633644334 48, 190.72265625 48 M-190.72265625 48 C-111.81515578471274 48, -32.90765531942549 48, 190.72265625 48" stroke="#9370DB" stroke-width="1.3" fill="none" stroke-dasharray="0 0" style=""/></g></g><g class="node default" id="classId-Adversary-1" transform="translate(737.0625, 62)"><g class="basic label-container"><path d="M-147.546875 -54 L147.546875 -54 L147.546875 54 L-147.546875 54" stroke="none" stroke-width="0" fill="#ECECFF" style=""/><path d="M-147.546875 -54 C-39.38038637490408 -54, 68.78610225019185 -54, 147.546875 -54 M-147.546875 -54 C-82.85809041689988 -54, -18.16930583379977 -54, 147.546875 -54 M147.546875 -54 C147.546875 -16.535962814599102, 147.546875 20.928074370801795, 147.546875 54 M147.546875 -54 C147.546875 -17.760669851370672, 147.546875 18.478660297258656, 147.546875 54 M147.546875 54 C54.93822274947178 54, -37.67042950105645 54, -147.546875 54 M147.546875 54 C68.56868322085987 54, -10.409508558280265 54, -147.546875 54 M-147.546875 54 C-147.546875 26.22429661932488, -147.546875 -1.5514067613502434, -147.546875 -54 M-147.546875 54 C-147.546875 14.039191191881962, -147.546875 -25.921617616236077, -147.546875 -54" stroke="#9370DB" stroke-width="1.3" fill="none" stroke-dasharray="0 0" style=""/></g><g class="annotation-group text" transform="translate(-135.546875, -30)"><g class="label" style="" transform="translate(0,-12)"><foreignObject width="271.09375" height="24"><div xmlns="http://www.w3.org/1999/xhtml" style="display: table-cell; white-space: nowrap; line-height: 1.5; max-width: 295px; text-align: center;"><span class="nodeLabel markdown-node-label" style=""><p>«catalog type — see catalog diagram»</p></span></div></foreignObject></g></g><g class="label-group text" transform="translate(-37.34375, -6)"><g class="label" style="font-weight: bolder" transform="translate(0,-12)"><foreignObject width="74.6875" height="24"><div xmlns="http://www.w3.org/1999/xhtml" style="display: table-cell; white-space: nowrap; line-height: 1.5; max-width: 117px; text-align: center;"><span class="nodeLabel markdown-node-label" style=""><p>Adversary</p></span></div></foreignObject></g></g><g class="members-group text" transform="translate(-135.546875, 42)"/><g class="methods-group text" transform="translate(-135.546875, 72)"/><g class="divider" style=""><path d="M-147.546875 18 C-67.54554099927428 18, 12.45579300145144 18, 147.546875 18 M-147.546875 18 C-43.62111450066537 18, 60.30464599866926 18, 147.546875 18" stroke="#9370DB" stroke-width="1.3" fill="none" stroke-dasharray="0 0" style=""/></g><g class="divider" style=""><path d="M-147.546875 36 C-75.97208254910626 36, -4.3972900982125225 36, 147.546875 36 M-147.546875 36 C-73.47906649224856 36, 0.5887420155028735 36, 147.546875 36" stroke="#9370DB" stroke-width="1.3" fill="none" stroke-dasharray="0 0" style=""/></g></g><g class="node default" id="classId-DaggerheartEnvironment-2" transform="translate(737.0625, 220)"><g class="basic label-container"><path d="M-147.546875 -54 L147.546875 -54 L147.546875 54 L-147.546875 54" stroke="none" stroke-width="0" fill="#ECECFF" style=""/><path d="M-147.546875 -54 C-78.18558533681319 -54, -8.82429567362638 -54, 147.546875 -54 M-147.546875 -54 C-54.81911933690449 -54, 37.908636326191015 -54, 147.546875 -54 M147.546875 -54 C147.546875 -29.05296003150996, 147.546875 -4.105920063019923, 147.546875 54 M147.546875 -54 C147.546875 -20.12415988024741, 147.546875 13.751680239505177, 147.546875 54 M147.546875 54 C74.2240996006895 54, 0.9013242013789977 54, -147.546875 54 M147.546875 54 C81.52836718098033 54, 15.50985936196065 54, -147.546875 54 M-147.546875 54 C-147.546875 16.97267553283465, -147.546875 -20.0546489343307, -147.546875 -54 M-147.546875 54 C-147.546875 19.266735644897373, -147.546875 -15.466528710205253, -147.546875 -54" stroke="#9370DB" stroke-width="1.3" fill="none" stroke-dasharray="0 0" style=""/></g><g class="annotation-group text" transform="translate(-135.546875, -30)"><g class="label" style="" transform="translate(0,-12)"><foreignObject width="271.09375" height="24"><div xmlns="http://www.w3.org/1999/xhtml" style="display: table-cell; white-space: nowrap; line-height: 1.5; max-width: 295px; text-align: center;"><span class="nodeLabel markdown-node-label" style=""><p>«catalog type — see catalog diagram»</p></span></div></foreignObject></g></g><g class="label-group text" transform="translate(-93.8046875, -6)"><g class="label" style="font-weight: bolder" transform="translate(0,-12)"><foreignObject width="187.609375" height="24"><div xmlns="http://www.w3.org/1999/xhtml" style="display: table-cell; white-space: nowrap; line-height: 1.5; max-width: 213px; text-align: center;"><span class="nodeLabel markdown-node-label" style=""><p>DaggerheartEnvironment</p></span></div></foreignObject></g></g><g class="members-group text" transform="translate(-135.546875, 42)"/><g class="methods-group text" transform="translate(-135.546875, 72)"/><g class="divider" style=""><path d="M-147.546875 18 C-65.8518074702939 18, 15.843260059412188 18, 147.546875 18 M-147.546875 18 C-51.75330802146212 18, 44.040258957075764 18, 147.546875 18" stroke="#9370DB" stroke-width="1.3" fill="none" stroke-dasharray="0 0" style=""/></g><g class="divider" style=""><path d="M-147.546875 36 C-32.93922898665305 36, 81.6684170266939 36, 147.546875 36 M-147.546875 36 C-58.77490626002894 36, 29.997062479942116 36, 147.546875 36" stroke="#9370DB" stroke-width="1.3" fill="none" stroke-dasharray="0 0" style=""/></g></g><g class="node default" id="classId-ContentSource-3" transform="translate(225.265625, 465)"><g class="basic label-container"><path d="M-217.265625 -192 L217.265625 -192 L217.265625 192 L-217.265625 192" stroke="none" stroke-width="0" fill="#ECECFF" style=""/><path d="M-217.265625 -192 C-121.19025445102304 -192, -25.114883902046074 -192, 217.265625 -192 M-217.265625 -192 C-107.15452585863679 -192, 2.956573282726424 -192, 217.265625 -192 M217.265625 -192 C217.265625 -52.89741325034936, 217.265625 86.20517349930128, 217.265625 192 M217.265625 -192 C217.265625 -109.58896678241024, 217.265625 -27.177933564820478, 217.265625 192 M217.265625 192 C65.07290130180144 192, -87.11982239639713 192, -217.265625 192 M217.265625 192 C104.86498993550991 192, -7.535645128980178 192, -217.265625 192 M-217.265625 192 C-217.265625 77.07942956941949, -217.265625 -37.84114086116102, -217.265625 -192 M-217.265625 192 C-217.265625 82.49523594290963, -217.265625 -27.00952811418074, -217.265625 -192" stroke="#9370DB" stroke-width="1.3" fill="none" stroke-dasharray="0 0" style=""/></g><g class="annotation-group text" transform="translate(0, -168)"/><g class="label-group text" transform="translate(-55.265625, -168)"><g class="label" style="font-weight: bolder" transform="translate(0,-12)"><foreignObject width="110.53125" height="24"><div xmlns="http://www.w3.org/1999/xhtml" style="display: table-cell; white-space: nowrap; line-height: 1.5; max-width: 145px; text-align: center;"><span class="nodeLabel markdown-node-label" style=""><p>ContentSource</p></span></div></foreignObject></g></g><g class="members-group text" transform="translate(-205.265625, -120)"><g class="label" style="" transform="translate(0,-12)"><foreignObject width="61.703125" height="24"><div xmlns="http://www.w3.org/1999/xhtml" style="display: table-cell; white-space: nowrap; line-height: 1.5; max-width: 120px; text-align: center;"><span class="nodeLabel markdown-node-label" style=""><p>+UUID id</p></span></div></foreignObject></g><g class="label" style="" transform="translate(0,12)"><foreignObject width="151.1875" height="24"><div xmlns="http://www.w3.org/1999/xhtml" style="display: table-cell; white-space: nowrap; line-height: 1.5; max-width: 198px; text-align: center;"><span class="nodeLabel markdown-node-label" style=""><p>+String? displayName</p></span></div></foreignObject></g><g class="label" style="" transform="translate(0,36)"><foreignObject width="66.5625" height="24"><div xmlns="http://www.w3.org/1999/xhtml" style="display: table-cell; white-space: nowrap; line-height: 1.5; max-width: 124px; text-align: center;"><span class="nodeLabel markdown-node-label" style=""><p>+URL? url</p></span></div></foreignObject></g><g class="label" style="" transform="translate(0,60)"><foreignObject width="106.15625" height="24"><div xmlns="http://www.w3.org/1999/xhtml" style="display: table-cell; white-space: nowrap; line-height: 1.5; max-width: 152px; text-align: center;"><span class="nodeLabel markdown-node-label" style=""><p>+Date addedAt</p></span></div></foreignObject></g><g class="label" style="" transform="translate(0,84)"><foreignObject width="151.875" height="24"><div xmlns="http://www.w3.org/1999/xhtml" style="display: table-cell; white-space: nowrap; line-height: 1.5; max-width: 194px; text-align: center;"><span class="nodeLabel markdown-node-label" style=""><p>+Date? lastFetchedAt</p></span></div></foreignObject></g><g class="label" style="" transform="translate(0,108)"><foreignObject width="232.578125" height="24"><div xmlns="http://www.w3.org/1999/xhtml" style="display: table-cell; white-space: nowrap; line-height: 1.5; max-width: 266px; text-align: center;"><span class="nodeLabel markdown-node-label" style=""><p>+ContentFingerprint? fingerprint</p></span></div></foreignObject></g><g class="label" style="" transform="translate(0,132)"><foreignObject width="173.59375" height="24"><div xmlns="http://www.w3.org/1999/xhtml" style="display: table-cell; white-space: nowrap; line-height: 1.5; max-width: 212px; text-align: center;"><span class="nodeLabel markdown-node-label" style=""><p>+Int consecutiveFailures</p></span></div></foreignObject></g><g class="label" style="" transform="translate(0,156)"><foreignObject width="140.734375" height="24"><div xmlns="http://www.w3.org/1999/xhtml" style="display: table-cell; white-space: nowrap; line-height: 1.5; max-width: 189px; text-align: center;"><span class="nodeLabel markdown-node-label" style=""><p>+Bool isLocalImport</p></span></div></foreignObject></g></g><g class="methods-group text" transform="translate(-205.265625, 96)"><g class="label" style="" transform="translate(0,-12)"><foreignObject width="193.5625" height="24"><div xmlns="http://www.w3.org/1999/xhtml" style="display: table-cell; white-space: nowrap; line-height: 1.5; max-width: 230px; text-align: center;"><span class="nodeLabel markdown-node-label" style=""><p>+Bool isThrottled(at: Date)</p></span></div></foreignObject></g><g class="label" style="" transform="translate(0,12)"><foreignObject width="245.953125" height="24"><div xmlns="http://www.w3.org/1999/xhtml" style="display: table-cell; white-space: nowrap; line-height: 1.5; max-width: 277px; text-align: center;"><span class="nodeLabel markdown-node-label" style=""><p>+Date nextAllowedFetch(at: Date)</p></span></div></foreignObject></g><g class="label" style="" transform="translate(0,36)"><foreignObject width="306.34375" height="24"><div xmlns="http://www.w3.org/1999/xhtml" style="display: table-cell; white-space: nowrap; line-height: 1.5; max-width: 330px; text-align: center;"><span class="nodeLabel markdown-node-label" style=""><p>+ContentSource recordingFailure(at: Date)</p></span></div></foreignObject></g><g class="label" style="" transform="translate(0,60)"><foreignObject width="355.265625" height="24"><div xmlns="http://www.w3.org/1999/xhtml" style="display: table-cell; white-space: nowrap; line-height: 1.5; max-width: 374px; text-align: center;"><span class="nodeLabel markdown-node-label" style=""><p>+ContentSource recordingSuccess(fingerprint:at:)</p></span></div></foreignObject></g></g><g class="divider" style=""><path d="M-217.265625 -144 C-94.94161741264061 -144, 27.38239017471878 -144, 217.265625 -144 M-217.265625 -144 C-96.55807524168326 -144, 24.14947451663349 -144, 217.265625 -144" stroke="#9370DB" stroke-width="1.3" fill="none" stroke-dasharray="0 0" style=""/></g><g class="divider" style=""><path d="M-217.265625 72 C-67.55414571814765 72, 82.1573335637047 72, 217.265625 72 M-217.265625 72 C-80.74020045886479 72, 55.78522408227042 72, 217.265625 72" stroke="#9370DB" stroke-width="1.3" fill="none" stroke-dasharray="0 0" style=""/></g></g><g class="node default" id="classId-ContentFingerprint-4" transform="translate(737.0625, 465)"><g class="basic label-container"><path d="M-99.79296875 -72 L99.79296875 -72 L99.79296875 72 L-99.79296875 72" stroke="none" stroke-width="0" fill="#ECECFF" style=""/><path d="M-99.79296875 -72 C-44.101538021073516 -72, 11.589892707852968 -72, 99.79296875 -72 M-99.79296875 -72 C-41.77826962692197 -72, 16.236429496156063 -72, 99.79296875 -72 M99.79296875 -72 C99.79296875 -23.826517070120346, 99.79296875 24.346965859759308, 99.79296875 72 M99.79296875 -72 C99.79296875 -16.39418431409495, 99.79296875 39.2116313718101, 99.79296875 72 M99.79296875 72 C40.00091897037122 72, -19.791130809257567 72, -99.79296875 72 M99.79296875 72 C31.837508018846748 72, -36.117952712306504 72, -99.79296875 72 M-99.79296875 72 C-99.79296875 23.278424801177344, -99.79296875 -25.44315039764531, -99.79296875 -72 M-99.79296875 72 C-99.79296875 28.59598005763739, -99.79296875 -14.808039884725218, -99.79296875 -72" stroke="#9370DB" stroke-width="1.3" fill="none" stroke-dasharray="0 0" style=""/></g><g class="annotation-group text" transform="translate(0, -48)"/><g class="label-group text" transform="translate(-71.9765625, -48)"><g class="label" style="font-weight: bolder" transform="translate(0,-12)"><foreignObject width="143.953125" height="24"><div xmlns="http://www.w3.org/1999/xhtml" style="display: table-cell; white-space: nowrap; line-height: 1.5; max-width: 173px; text-align: center;"><span class="nodeLabel markdown-node-label" style=""><p>ContentFingerprint</p></span></div></foreignObject></g></g><g class="members-group text" transform="translate(-87.79296875, 0)"><g class="label" style="" transform="translate(0,-12)"><foreignObject width="103.609375" height="24"><div xmlns="http://www.w3.org/1999/xhtml" style="display: table-cell; white-space: nowrap; line-height: 1.5; max-width: 152px; text-align: center;"><span class="nodeLabel markdown-node-label" style=""><p>+String sha256</p></span></div></foreignObject></g><g class="label" style="" transform="translate(0,12)"><foreignObject width="92.1875" height="24"><div xmlns="http://www.w3.org/1999/xhtml" style="display: table-cell; white-space: nowrap; line-height: 1.5; max-width: 140px; text-align: center;"><span class="nodeLabel markdown-node-label" style=""><p>+String? etag</p></span></div></foreignObject></g></g><g class="methods-group text" transform="translate(-87.79296875, 72)"/><g class="divider" style=""><path d="M-99.79296875 -24 C-28.36982505658662 -24, 43.05331863682676 -24, 99.79296875 -24 M-99.79296875 -24 C-50.85064284659055 -24, -1.9083169431811058 -24, 99.79296875 -24" stroke="#9370DB" stroke-width="1.3" fill="none" stroke-dasharray="0 0" style=""/></g><g class="divider" style=""><path d="M-99.79296875 48 C-43.7472724071785 48, 12.298423935643001 48, 99.79296875 48 M-99.79296875 48 C-46.94665834416595 48, 5.899652061668107 48, 99.79296875 48" stroke="#9370DB" stroke-width="1.3" fill="none" stroke-dasharray="0 0" style=""/></g></g><g class="node default" id="classId-ContentStoreError-5" transform="translate(225.265625, 839)"><g class="basic label-container"><path d="M-100.53515625 -132 L100.53515625 -132 L100.53515625 132 L-100.53515625 132" stroke="none" stroke-width="0" fill="#ECECFF" style=""/><path d="M-100.53515625 -132 C-38.270167447838446 -132, 23.994821354323108 -132, 100.53515625 -132 M-100.53515625 -132 C-41.07618047303805 -132, 18.3827953039239 -132, 100.53515625 -132 M100.53515625 -132 C100.53515625 -27.29278322830062, 100.53515625 77.41443354339876, 100.53515625 132 M100.53515625 -132 C100.53515625 -75.94680405671255, 100.53515625 -19.893608113425103, 100.53515625 132 M100.53515625 132 C57.40549605610211 132, 14.275835862204218 132, -100.53515625 132 M100.53515625 132 C40.47267965927887 132, -19.589796931442265 132, -100.53515625 132 M-100.53515625 132 C-100.53515625 72.83778979542492, -100.53515625 13.675579590849836, -100.53515625 -132 M-100.53515625 132 C-100.53515625 56.753933701816734, -100.53515625 -18.49213259636653, -100.53515625 -132" stroke="#9370DB" stroke-width="1.3" fill="none" stroke-dasharray="0 0" style=""/></g><g class="annotation-group text" transform="translate(-53.9296875, -108)"><g class="label" style="" transform="translate(0,-12)"><foreignObject width="107.859375" height="24"><div xmlns="http://www.w3.org/1999/xhtml" style="display: table-cell; white-space: nowrap; line-height: 1.5; max-width: 146px; text-align: center;"><span class="nodeLabel markdown-node-label" style=""><p>«enumeration»</p></span></div></foreignObject></g></g><g class="label-group text" transform="translate(-68.9453125, -84)"><g class="label" style="font-weight: bolder" transform="translate(0,-12)"><foreignObject width="137.890625" height="24"><div xmlns="http://www.w3.org/1999/xhtml" style="display: table-cell; white-space: nowrap; line-height: 1.5; max-width: 168px; text-align: center;"><span class="nodeLabel markdown-node-label" style=""><p>ContentStoreError</p></span></div></foreignObject></g></g><g class="members-group text" transform="translate(-88.53515625, -36)"><g class="label" style="" transform="translate(0,-12)"><foreignObject width="105.53125" height="24"><div xmlns="http://www.w3.org/1999/xhtml" style="display: table-cell; white-space: nowrap; line-height: 1.5; max-width: 142px; text-align: center;"><span class="nodeLabel markdown-node-label" style=""><p>fetchThrottled</p></span></div></foreignObject></g><g class="label" style="" transform="translate(0,12)"><foreignObject width="94.40625" height="24"><div xmlns="http://www.w3.org/1999/xhtml" style="display: table-cell; white-space: nowrap; line-height: 1.5; max-width: 136px; text-align: center;"><span class="nodeLabel markdown-node-label" style=""><p>networkError</p></span></div></foreignObject></g><g class="label" style="" transform="translate(0,36)"><foreignObject width="108.125" height="24"><div xmlns="http://www.w3.org/1999/xhtml" style="display: table-cell; white-space: nowrap; line-height: 1.5; max-width: 149px; text-align: center;"><span class="nodeLabel markdown-node-label" style=""><p>decodingFailed</p></span></div></foreignObject></g><g class="label" style="" transform="translate(0,60)"><foreignObject width="81.484375" height="24"><div xmlns="http://www.w3.org/1999/xhtml" style="display: table-cell; white-space: nowrap; line-height: 1.5; max-width: 123px; text-align: center;"><span class="nodeLabel markdown-node-label" style=""><p>writeFailed</p></span></div></foreignObject></g><g class="label" style="" transform="translate(0,84)"><foreignObject width="76" height="24"><div xmlns="http://www.w3.org/1999/xhtml" style="display: table-cell; white-space: nowrap; line-height: 1.5; max-width: 118px; text-align: center;"><span class="nodeLabel markdown-node-label" style=""><p>readFailed</p></span></div></foreignObject></g><g class="label" style="" transform="translate(0,108)"><foreignObject width="104.796875" height="24"><div xmlns="http://www.w3.org/1999/xhtml" style="display: table-cell; white-space: nowrap; line-height: 1.5; max-width: 145px; text-align: center;"><span class="nodeLabel markdown-node-label" style=""><p>invalidContent</p></span></div></foreignObject></g></g><g class="methods-group text" transform="translate(-88.53515625, 132)"/><g class="divider" style=""><path d="M-100.53515625 -60 C-47.66216128164123 -60, 5.210833686717535 -60, 100.53515625 -60 M-100.53515625 -60 C-38.910401463702065 -60, 22.71435332259587 -60, 100.53515625 -60" stroke="#9370DB" stroke-width="1.3" fill="none" stroke-dasharray="0 0" style=""/></g><g class="divider" style=""><path d="M-100.53515625 108 C-43.24373564583865 108, 14.047684958322705 108, 100.53515625 108 M-100.53515625 108 C-21.52445623243372 108, 57.48624378513256 108, 100.53515625 108" stroke="#9370DB" stroke-width="1.3" fill="none" stroke-dasharray="0 0" style=""/></g></g></g></g></g></svg>