<svg id="my-svg" width="100%" xmlns="http://www.w3.org/2000/svg" xmlns:xlink="http://www.w3.org/1999/xlink" class="classDiagram" style="max-width: 982.928px; background-color: white;" viewBox="0 0 982.927734375 690" role="graphics-document document" aria-roledescription="class"><style>#my-svg{font-family:"trebuchet ms",verdana,arial,sans-serif;font-size:16px;fill:#333;}@keyframes edge-animation-frame{from{stroke-dashoffset:0;}}@keyframes dash{to{stroke-dashoffset:0;}}#my-svg .edge-animation-slow{stroke-dasharray:9,5!important;stroke-dashoffset:900;animation:dash 50s linear infinite;stroke-linecap:round;}#my-svg .edge-animation-fast{stroke-dasharray:9,5!important;stroke-dashoffset:900;animation:dash 20s linear infinite;stroke-linecap:round;}#my-svg .error-icon{fill:#552222;}#my-svg .error-text{fill:#552222;stroke:#552222;}#my-svg .edge-thickness-normal{stroke-width:1px;}#my-svg .edge-thickness-thick{stroke-width:3.5px;}#my-svg .edge-pattern-solid{stroke-dasharray:0;}#my-svg .edge-thickness-invisible{stroke-width:0;fill:none;}#my-svg .edge-pattern-dashed{stroke-dasharray:3;}#my-svg .edge-pattern-dotted{stroke-dasharray:2;}#my-svg .marker{fill:#333333;stroke:#333333;}#my-svg .marker.cross{stroke:#333333;}#my-svg svg{font-family:"trebuchet ms",verdana,arial,sans-serif;font-size:16px;}#my-svg p{margin:0;}#my-svg g.classGroup text{fill:#9370DB;stroke:none;font-family:"trebuchet ms",verdana,arial,sans-serif;font-size:10px;}#my-svg g.classGroup text .title{font-weight:bolder;}#my-svg .cluster-label text{fill:#333;}#my-svg .cluster-label span{color:#333;}#my-svg .cluster-label span p{background-color:transparent;}#my-svg .cluster rect{fill:#ffffde;stroke:#aaaa33;stroke-width:1px;}#my-svg .cluster text{fill:#333;}#my-svg .cluster span{color:#333;}#my-svg .nodeLabel,#my-svg .edgeLabel{color:#131300;}#my-svg .edgeLabel .label rect{fill:#ECECFF;}#my-svg .label text{fill:#131300;}#my-svg .labelBkg{background:#ECECFF;}#my-svg .edgeLabel .label span{background:#ECECFF;}#my-svg .classTitle{font-weight:bolder;}#my-svg .node rect,#my-svg .node circle,#my-svg .node ellipse,#my-svg .node polygon,#my-svg .node path{fill:#ECECFF;stroke:#9370DB;stroke-width:1px;}#my-svg .divider{stroke:#9370DB;stroke-width:1;}#my-svg g.clickable{cursor:pointer;}#my-svg g.classGroup rect{fill:#ECECFF;stroke:#9370DB;}#my-svg g.classGroup line{stroke:#9370DB;stroke-width:1;}#my-svg .classLabel .box{stroke:none;stroke-width:0;fill:#ECECFF;opacity:0.5;}#my-svg .classLabel .label{fill:#9370DB;font-size:10px;}#my-svg .relation{stroke:#333333;stroke-width:1;fill:none;}#my-svg .dashed-line{stroke-dasharray:3;}#my-svg .dotted-line{stroke-dasharray:1 2;}#my-svg #compositionStart,#my-svg .composition{fill:#333333!important;stroke:#333333!important;stroke-width:1;}#my-svg #compositionEnd,#my-svg .composition{fill:#333333!important;stroke:#333333!important;stroke-width:1;}#my-svg #dependencyStart,#my-svg .dependency{fill:#333333!important;stroke:#333333!important;stroke-width:1;}#my-svg #dependencyStart,#my-svg .dependency{fill:#333333!important;stroke:#333333!important;stroke-width:1;}#my-svg #extensionStart,#my-svg .extension{fill:transparent!important;stroke:#333333!important;stroke-width:1;}#my-svg #extensionEnd,#my-svg .extension{fill:transparent!important;stroke:#333333!important;stroke-width:1;}#my-svg #aggregationStart,#my-svg .aggregation{fill:transparent!important;stroke:#333333!important;stroke-width:1;}#my-svg #aggregationEnd,#my-svg .aggregation{fill:transparent!important;stroke:#333333!important;stroke-width:1;}#my-svg #lollipopStart,#my-svg .lollipop{fill:#ECECFF!important;stroke:#333333!important;stroke-width:1;}#my-svg #lollipopEnd,#my-svg .lollipop{fill:#ECECFF!important;stroke:#333333!important;stroke-width:1;}#my-svg .edgeTerminals{font-size:11px;line-height:initial;}#my-svg .classTitleText{text-anchor:middle;font-size:18px;fill:#333;}#my-svg .label-icon{display:inline-block;height:1em;overflow:visible;vertical-align:-0.125em;}#my-svg .node .label-icon path{fill:currentColor;stroke:revert;stroke-width:revert;}#my-svg :root{--mermaid-font-family:"trebuchet ms",verdana,arial,sans-serif;}</style><g><defs><marker id="my-svg_class-aggregationStart" class="marker aggregation class" refX="18" refY="7" markerWidth="190" markerHeight="240" orient="auto"><path d="M 18,7 L9,13 L1,7 L9,1 Z"/></marker></defs><defs><marker id="my-svg_class-aggregationEnd" class="marker aggregation class" refX="1" refY="7" markerWidth="20" markerHeight="28" orient="auto"><path d="M 18,7 L9,13 L1,7 L9,1 Z"/></marker></defs><defs><marker id="my-svg_class-extensionStart" class="marker extension class" refX="18" refY="7" markerWidth="190" markerHeight="240" orient="auto"><path d="M 1,7 L18,13 V 1 Z"/></marker></defs><defs><marker id="my-svg_class-extensionEnd" class="marker extension class" refX="1" refY="7" markerWidth="20" markerHeight="28" orient="auto"><path d="M 1,1 V 13 L18,7 Z"/></marker></defs><defs><marker id="my-svg_class-compositionStart" class="marker composition class" refX="18" refY="7" markerWidth="190" markerHeight="240" orient="auto"><path d="M 18,7 L9,13 L1,7 L9,1 Z"/></marker></defs><defs><marker id="my-svg_class-compositionEnd" class="marker composition class" refX="1" refY="7" markerWidth="20" markerHeight="28" orient="auto"><path d="M 18,7 L9,13 L1,7 L9,1 Z"/></marker></defs><defs><marker id="my-svg_class-dependencyStart" class="marker dependency class" refX="6" refY="7" markerWidth="190" markerHeight="240" orient="auto"><path d="M 5,7 L9,13 L1,7 L9,1 Z"/></marker></defs><defs><marker id="my-svg_class-dependencyEnd" class="marker dependency class" refX="13" refY="7" markerWidth="20" markerHeight="28" orient="auto"><path d="M 18,7 L9,13 L14,7 L9,1 Z"/></marker></defs><defs><marker id="my-svg_class-lollipopStart" class="marker lollipop class" refX="13" refY="7" markerWidth="190" markerHeight="240" orient="auto"><circle fill="transparent" cx="7" cy="7" r="6"/></marker></defs><defs><marker id="my-svg_class-lollipopEnd" class="marker lollipop class" refX="1" refY="7" markerWidth="190" markerHeight="240" orient="auto"><circle fill="transparent" cx="7" cy="7" r="6"/></marker></defs><g class="root"><g class="clusters"/><g class="edgePaths"><path d="M163.773,313.25L163.773,316.542C163.773,319.833,163.773,326.417,163.773,337.875C163.773,349.333,163.773,365.667,163.773,373.833L163.773,382" id="id_EncounterDefinition_PlayerConfig_1" class="edge-thickness-normal edge-pattern-solid relation" style=";;;" data-edge="true" data-et="edge" data-id="id_EncounterDefinition_PlayerConfig_1" data-points="W3sieCI6MTYzLjc3MzQzNzUsInkiOjI5Nn0seyJ4IjoxNjMuNzczNDM3NSwieSI6MzMzfSx7IngiOjE2My43NzM0Mzc1LCJ5IjozODJ9XQ==" marker-start="url(#my-svg_class-compositionStart)"/><path d="M586.542,275L578.607,284.667C570.673,294.333,554.804,313.667,546.87,340.5C538.936,367.333,538.936,401.667,538.936,418.833L538.936,436" id="id_DifficultyBudget_DifficultyBudget_Rating_2" class="edge-thickness-normal edge-pattern-dashed relation" style=";;;" data-edge="true" data-et="edge" data-id="id_DifficultyBudget_DifficultyBudget_Rating_2" data-points="W3sieCI6NTg2LjU0MTgzNTcyMTY4NTEsInkiOjI3NX0seyJ4Ijo1MzguOTM1NTQ2ODc1LCJ5IjozMzN9LHsieCI6NTM4LjkzNTU0Njg3NSwieSI6NDQyfV0=" marker-end="url(#my-svg_class-dependencyEnd)"/><path d="M788.458,275L796.393,284.667C804.327,294.333,820.196,313.667,828.13,328.5C836.064,343.333,836.064,353.667,836.064,358.833L836.064,364" id="id_DifficultyBudget_DifficultyBudget_Adjustment_3" class="edge-thickness-normal edge-pattern-dashed relation" style=";;;" data-edge="true" data-et="edge" data-id="id_DifficultyBudget_DifficultyBudget_Adjustment_3" data-points="W3sieCI6Nzg4LjQ1ODE2NDI3ODMxNDksInkiOjI3NX0seyJ4Ijo4MzYuMDY0NDUzMTI1LCJ5IjozMzN9LHsieCI6ODM2LjA2NDQ1MzEyNSwieSI6MzcwfV0=" marker-end="url(#my-svg_class-dependencyEnd)"/></g><g class="edgeLabels"><g class="edgeLabel" transform="translate(163.7734375, 333)"><g class="label" data-id="id_EncounterDefinition_PlayerConfig_1" transform="translate(-48.3828125, -12)"><foreignObject width="96.765625" height="24"><div xmlns="http://www.w3.org/1999/xhtml" class="labelBkg" style="display: table-cell; white-space: nowrap; line-height: 1.5; max-width: 200px; text-align: center;"><span class="edgeLabel"><p>playerConfigs</p></span></div></foreignObject></g></g><g class="edgeLabel" transform="translate(538.935546875, 333)"><g class="label" data-id="id_DifficultyBudget_DifficultyBudget_Rating_2" transform="translate(-25.734375, -12)"><foreignObject width="51.46875" height="24"><div xmlns="http://www.w3.org/1999/xhtml" class="labelBkg" style="display: table-cell; white-space: nowrap; line-height: 1.5; max-width: 200px; text-align: center;"><span class="edgeLabel"><p>returns</p></span></div></foreignObject></g></g><g class="edgeLabel" transform="translate(836.064453125, 333)"><g class="label" data-id="id_DifficultyBudget_DifficultyBudget_Adjustment_3" transform="translate(-25.734375, -12)"><foreignObject width="51.46875" height="24"><div xmlns="http://www.w3.org/1999/xhtml" class="labelBkg" style="display: table-cell; white-space: nowrap; line-height: 1.5; max-width: 200px; text-align: center;"><span class="edgeLabel"><p>returns</p></span></div></foreignObject></g></g><g class="edgeTerminals" transform="translate(148.77343875000003, 313.5000010714286)"><g class="inner" transform="translate(-2.890625, -8.25)"><foreignObject width="5.78125" height="16.5" style="width: 9px; height: 12px;"><div xmlns="http://www.w3.org/1999/xhtml" style="display: table-cell; white-space: nowrap; line-height: 1.5;"><span class="edgeLabel"><p>1</p></span></div></foreignObject></g></g><g class="edgeTerminals" transform="translate(173.77343874999997, 359.5000010714286)"><g class="inner" transform="translate(-8.9453125, -8.25)"/><foreignObject width="17.890625" height="16.5" style="width: 36px; height: 12px;"><div xmlns="http://www.w3.org/1999/xhtml" style="display: table-cell; white-space: nowrap; line-height: 1.5;"><span class="edgeLabel"><p>0..*</p></span></div></foreignObject></g></g><g class="nodes"><g class="node default" id="classId-EncounterDefinition-0" transform="translate(163.7734375, 152)"><g class="basic label-container"><path d="M-155.7734375 -144 L155.7734375 -144 L155.7734375 144 L-155.7734375 144" stroke="none" stroke-width="0" fill="#ECECFF" style=""/><path d="M-155.7734375 -144 C-58.23166020908502 -144, 39.31011708182996 -144, 155.7734375 -144 M-155.7734375 -144 C-90.60873178466002 -144, -25.444026069320046 -144, 155.7734375 -144 M155.7734375 -144 C155.7734375 -75.10205691232328, 155.7734375 -6.204113824646555, 155.7734375 144 M155.7734375 -144 C155.7734375 -31.61015776083991, 155.7734375 80.77968447832018, 155.7734375 144 M155.7734375 144 C53.3217011912987 144, -49.1300351174026 144, -155.7734375 144 M155.7734375 144 C50.935550495680545 144, -53.90233650863891 144, -155.7734375 144 M-155.7734375 144 C-155.7734375 50.015225988403444, -155.7734375 -43.96954802319311, -155.7734375 -144 M-155.7734375 144 C-155.7734375 70.40011907390843, -155.7734375 -3.199761852183144, -155.7734375 -144" stroke="#9370DB" stroke-width="1.3" fill="none" stroke-dasharray="0 0" style=""/></g><g class="annotation-group text" transform="translate(0, -120)"/><g class="label-group text" transform="translate(-75.53125, -120)"><g class="label" style="font-weight: bolder" transform="translate(0,-12)"><foreignObject width="151.0625" height="24"><div xmlns="http://www.w3.org/1999/xhtml" style="display: table-cell; white-space: nowrap; line-height: 1.5; max-width: 182px; text-align: center;"><span class="nodeLabel markdown-node-label" style=""><p>EncounterDefinition</p></span></div></foreignObject></g></g><g class="members-group text" transform="translate(-143.7734375, -72)"><g class="label" style="" transform="translate(0,-12)"><foreignObject width="61.703125" height="24"><div xmlns="http://www.w3.org/1999/xhtml" style="display: table-cell; white-space: nowrap; line-height: 1.5; max-width: 120px; text-align: center;"><span class="nodeLabel markdown-node-label" style=""><p>+UUID id</p></span></div></foreignObject></g><g class="label" style="" transform="translate(0,12)"><foreignObject width="93.96875" height="24"><div xmlns="http://www.w3.org/1999/xhtml" style="display: table-cell; white-space: nowrap; line-height: 1.5; max-width: 141px; text-align: center;"><span class="nodeLabel markdown-node-label" style=""><p>+String name</p></span></div></foreignObject></g><g class="label" style="" transform="translate(0,36)"><foreignObject width="156.390625" height="24"><div xmlns="http://www.w3.org/1999/xhtml" style="display: table-cell; white-space: nowrap; line-height: 1.5; max-width: 203px; text-align: center;"><span class="nodeLabel markdown-node-label" style=""><p>+[String] adversaryIDs</p></span></div></foreignObject></g><g class="label" style="" transform="translate(0,60)"><foreignObject width="177.8125" height="24"><div xmlns="http://www.w3.org/1999/xhtml" style="display: table-cell; white-space: nowrap; line-height: 1.5; max-width: 221px; text-align: center;"><span class="nodeLabel markdown-node-label" style=""><p>+[String] environmentIDs</p></span></div></foreignObject></g><g class="label" style="" transform="translate(0,84)"><foreignObject width="212.015625" height="24"><div xmlns="http://www.w3.org/1999/xhtml" style="display: table-cell; white-space: nowrap; line-height: 1.5; max-width: 254px; text-align: center;"><span class="nodeLabel markdown-node-label" style=""><p>+[PlayerConfig] playerConfigs</p></span></div></foreignObject></g><g class="label" style="" transform="translate(0,108)"><foreignObject width="116.46875" height="24"><div xmlns="http://www.w3.org/1999/xhtml" style="display: table-cell; white-space: nowrap; line-height: 1.5; max-width: 164px; text-align: center;"><span class="nodeLabel markdown-node-label" style=""><p>+String gmNotes</p></span></div></foreignObject></g><g class="label" style="" transform="translate(0,132)"><foreignObject width="117.546875" height="24"><div xmlns="http://www.w3.org/1999/xhtml" style="display: table-cell; white-space: nowrap; line-height: 1.5; max-width: 160px; text-align: center;"><span class="nodeLabel markdown-node-label" style=""><p>+Date createdAt</p></span></div></foreignObject></g><g class="label" style="" transform="translate(0,156)"><foreignObject width="125.75" height="24"><div xmlns="http://www.w3.org/1999/xhtml" style="display: table-cell; white-space: nowrap; line-height: 1.5; max-width: 171px; text-align: center;"><span class="nodeLabel markdown-node-label" style=""><p>+Date modifiedAt</p></span></div></foreignObject></g></g><g class="methods-group text" transform="translate(-143.7734375, 144)"/><g class="divider" style=""><path d="M-155.7734375 -96 C-76.7104952834398 -96, 2.3524469331204045 -96, 155.7734375 -96 M-155.7734375 -96 C-32.71728029198519 -96, 90.33887691602962 -96, 155.7734375 -96" stroke="#9370DB" stroke-width="1.3" fill="none" stroke-dasharray="0 0" style=""/></g><g class="divider" style=""><path d="M-155.7734375 120 C-73.5433987381819 120, 8.686640023636187 120, 155.7734375 120 M-155.7734375 120 C-44.06498872103094 120, 67.64346005793811 120, 155.7734375 120" stroke="#9370DB" stroke-width="1.3" fill="none" stroke-dasharray="0 0" style=""/></g></g><g class="node default" id="classId-PlayerConfig-1" transform="translate(163.7734375, 526)"><g class="basic label-container"><path d="M-109.6328125 -144 L109.6328125 -144 L109.6328125 144 L-109.6328125 144" stroke="none" stroke-width="0" fill="#ECECFF" style=""/><path d="M-109.6328125 -144 C-27.549311800227954 -144, 54.53418889954409 -144, 109.6328125 -144 M-109.6328125 -144 C-35.53989692848472 -144, 38.553018643030555 -144, 109.6328125 -144 M109.6328125 -144 C109.6328125 -76.66149444547308, 109.6328125 -9.322988890946164, 109.6328125 144 M109.6328125 -144 C109.6328125 -38.41603864862235, 109.6328125 67.1679227027553, 109.6328125 144 M109.6328125 144 C58.272606700066255 144, 6.912400900132511 144, -109.6328125 144 M109.6328125 144 C58.38885771353675 144, 7.1449029270735025 144, -109.6328125 144 M-109.6328125 144 C-109.6328125 78.43787092460795, -109.6328125 12.875741849215899, -109.6328125 -144 M-109.6328125 144 C-109.6328125 74.92572497314993, -109.6328125 5.8514499462998515, -109.6328125 -144" stroke="#9370DB" stroke-width="1.3" fill="none" stroke-dasharray="0 0" style=""/></g><g class="annotation-group text" transform="translate(0, -120)"/><g class="label-group text" transform="translate(-47.109375, -120)"><g class="label" style="font-weight: bolder" transform="translate(0,-12)"><foreignObject width="94.21875" height="24"><div xmlns="http://www.w3.org/1999/xhtml" style="display: table-cell; white-space: nowrap; line-height: 1.5; max-width: 135px; text-align: center;"><span class="nodeLabel markdown-node-label" style=""><p>PlayerConfig</p></span></div></foreignObject></g></g><g class="members-group text" transform="translate(-97.6328125, -72)"><g class="label" style="" transform="translate(0,-12)"><foreignObject width="61.703125" height="24"><div xmlns="http://www.w3.org/1999/xhtml" style="display: table-cell; white-space: nowrap; line-height: 1.5; max-width: 120px; text-align: center;"><span class="nodeLabel markdown-node-label" style=""><p>+UUID id</p></span></div></foreignObject></g><g class="label" style="" transform="translate(0,12)"><foreignObject width="93.96875" height="24"><div xmlns="http://www.w3.org/1999/xhtml" style="display: table-cell; white-space: nowrap; line-height: 1.5; max-width: 141px; text-align: center;"><span class="nodeLabel markdown-node-label" style=""><p>+String name</p></span></div></foreignObject></g><g class="label" style="" transform="translate(0,36)"><foreignObject width="81.84375" height="24"><div xmlns="http://www.w3.org/1999/xhtml" style="display: table-cell; white-space: nowrap; line-height: 1.5; max-width: 133px; text-align: center;"><span class="nodeLabel markdown-node-label" style=""><p>+Int maxHP</p></span></div></foreignObject></g><g class="label" style="" transform="translate(0,60)"><foreignObject width="104.390625" height="24"><div xmlns="http://www.w3.org/1999/xhtml" style="display: table-cell; white-space: nowrap; line-height: 1.5; max-width: 151px; text-align: center;"><span class="nodeLabel markdown-node-label" style=""><p>+Int maxStress</p></span></div></foreignObject></g><g class="label" style="" transform="translate(0,84)"><foreignObject width="86.09375" height="24"><div xmlns="http://www.w3.org/1999/xhtml" style="display: table-cell; white-space: nowrap; line-height: 1.5; max-width: 134px; text-align: center;"><span class="nodeLabel markdown-node-label" style=""><p>+Int evasion</p></span></div></foreignObject></g><g class="label" style="" transform="translate(0,108)"><foreignObject width="140.65625" height="24"><div xmlns="http://www.w3.org/1999/xhtml" style="display: table-cell; white-space: nowrap; line-height: 1.5; max-width: 184px; text-align: center;"><span class="nodeLabel markdown-node-label" style=""><p>+Int thresholdMajor</p></span></div></foreignObject></g><g class="label" style="" transform="translate(0,132)"><foreignObject width="148.15625" height="24"><div xmlns="http://www.w3.org/1999/xhtml" style="display: table-cell; white-space: nowrap; line-height: 1.5; max-width: 188px; text-align: center;"><span class="nodeLabel markdown-node-label" style=""><p>+Int thresholdSevere</p></span></div></foreignObject></g><g class="label" style="" transform="translate(0,156)"><foreignObject width="109.28125" height="24"><div xmlns="http://www.w3.org/1999/xhtml" style="display: table-cell; white-space: nowrap; line-height: 1.5; max-width: 155px; text-align: center;"><span class="nodeLabel markdown-node-label" style=""><p>+Int armorSlots</p></span></div></foreignObject></g></g><g class="methods-group text" transform="translate(-97.6328125, 144)"/><g class="divider" style=""><path d="M-109.6328125 -96 C-37.74583741187563 -96, 34.141137676248746 -96, 109.6328125 -96 M-109.6328125 -96 C-45.14631809023405 -96, 19.340176319531906 -96, 109.6328125 -96" stroke="#9370DB" stroke-width="1.3" fill="none" stroke-dasharray="0 0" style=""/></g><g class="divider" style=""><path d="M-109.6328125 120 C-36.56460379209585 120, 36.503604915808296 120, 109.6328125 120 M-109.6328125 120 C-48.846382066315186 120, 11.940048367369627 120, 109.6328125 120" stroke="#9370DB" stroke-width="1.3" fill="none" stroke-dasharray="0 0" style=""/></g></g><g class="node default" id="classId-DifficultyBudget-2" transform="translate(687.5, 152)"><g class="basic label-container"><path d="M-276.65234375 -123 L276.65234375 -123 L276.65234375 123 L-276.65234375 123" stroke="none" stroke-width="0" fill="#ECECFF" style=""/><path d="M-276.65234375 -123 C-69.69856466533699 -123, 137.25521441932602 -123, 276.65234375 -123 M-276.65234375 -123 C-163.8953445864973 -123, -51.13834542299455 -123, 276.65234375 -123 M276.65234375 -123 C276.65234375 -63.201618757784516, 276.65234375 -3.4032375155690318, 276.65234375 123 M276.65234375 -123 C276.65234375 -39.1910686272214, 276.65234375 44.617862745557204, 276.65234375 123 M276.65234375 123 C99.32014351116982 123, -78.01205672766037 123, -276.65234375 123 M276.65234375 123 C110.03860400203311 123, -56.57513574593378 123, -276.65234375 123 M-276.65234375 123 C-276.65234375 46.31700722280111, -276.65234375 -30.36598555439778, -276.65234375 -123 M-276.65234375 123 C-276.65234375 70.34588888102559, -276.65234375 17.69177776205116, -276.65234375 -123" stroke="#9370DB" stroke-width="1.3" fill="none" stroke-dasharray="0 0" style=""/></g><g class="annotation-group text" transform="translate(-29.9765625, -99)"><g class="label" style="" transform="translate(0,-12)"><foreignObject width="59.953125" height="24"><div xmlns="http://www.w3.org/1999/xhtml" style="display: table-cell; white-space: nowrap; line-height: 1.5; max-width: 104px; text-align: center;"><span class="nodeLabel markdown-node-label" style=""><p>«utility»</p></span></div></foreignObject></g></g><g class="label-group text" transform="translate(-60.3671875, -75)"><g class="label" style="font-weight: bolder" transform="translate(0,-12)"><foreignObject width="120.734375" height="24"><div xmlns="http://www.w3.org/1999/xhtml" style="display: table-cell; white-space: nowrap; line-height: 1.5; max-width: 159px; text-align: center;"><span class="nodeLabel markdown-node-label" style=""><p>DifficultyBudget</p></span></div></foreignObject></g></g><g class="members-group text" transform="translate(-264.65234375, -27)"/><g class="methods-group text" transform="translate(-264.65234375, 3)"><g class="label" style="text-decoration:underline;" transform="translate(0,-12)"><foreignObject width="218.15625" height="24"><div xmlns="http://www.w3.org/1999/xhtml" style="display: table-cell; white-space: nowrap; line-height: 1.5; max-width: 255px; text-align: center;"><span class="nodeLabel markdown-node-label" style=""><p>+cost(for: AdversaryType) : Int</p></span></div></foreignObject></g><g class="label" style="text-decoration:underline;" transform="translate(0,12)"><foreignObject width="230.265625" height="24"><div xmlns="http://www.w3.org/1999/xhtml" style="display: table-cell; white-space: nowrap; line-height: 1.5; max-width: 263px; text-align: center;"><span class="nodeLabel markdown-node-label" style=""><p>+baseBudget(playerCount:) : Int</p></span></div></foreignObject></g><g class="label" style="text-decoration:underline;" transform="translate(0,36)"><foreignObject width="266.84375" height="24"><div xmlns="http://www.w3.org/1999/xhtml" style="display: table-cell; white-space: nowrap; line-height: 1.5; max-width: 298px; text-align: center;"><span class="nodeLabel markdown-node-label" style=""><p>+totalCost(for: [AdversaryType]) : Int</p></span></div></foreignObject></g><g class="label" style="text-decoration:underline;" transform="translate(0,60)"><foreignObject width="468.9375" height="24"><div xmlns="http://www.w3.org/1999/xhtml" style="display: table-cell; white-space: nowrap; line-height: 1.5; max-width: 477px; text-align: center;"><span class="nodeLabel markdown-node-label" style=""><p>+rating(adversaryTypes:playerCount:budgetAdjustment:) : Rating</p></span></div></foreignObject></g><g class="label" style="text-decoration:underline;" transform="translate(0,84)"><foreignObject width="432.328125" height="24"><div xmlns="http://www.w3.org/1999/xhtml" style="display: table-cell; white-space: nowrap; line-height: 1.5; max-width: 485px; text-align: center;"><span class="nodeLabel markdown-node-label" style=""><p>+suggestedAdjustments(adversaryTypes:) : Set&lt;Adjustment&gt;</p></span></div></foreignObject></g></g><g class="divider" style=""><path d="M-276.65234375 -51 C-119.39484675972011 -51, 37.86265023055978 -51, 276.65234375 -51 M-276.65234375 -51 C-68.7583086238588 -51, 139.1357265022824 -51, 276.65234375 -51" stroke="#9370DB" stroke-width="1.3" fill="none" stroke-dasharray="0 0" style=""/></g><g class="divider" style=""><path d="M-276.65234375 -27 C-117.52690081591052 -27, 41.598542118178955 -27, 276.65234375 -27 M-276.65234375 -27 C-156.95731615967395 -27, -37.26228856934793 -27, 276.65234375 -27" stroke="#9370DB" stroke-width="1.3" fill="none" stroke-dasharray="0 0" style=""/></g></g><g class="node default" id="classId-DifficultyBudget_Rating-3" transform="translate(538.935546875, 526)"><g class="basic label-container"><path d="M-108.265625 -84 L108.265625 -84 L108.265625 84 L-108.265625 84" stroke="none" stroke-width="0" fill="#ECECFF" style=""/><path d="M-108.265625 -84 C-60.940459788221 -84, -13.615294576441997 -84, 108.265625 -84 M-108.265625 -84 C-43.288817831723634 -84, 21.687989336552732 -84, 108.265625 -84 M108.265625 -84 C108.265625 -24.076784493447605, 108.265625 35.84643101310479, 108.265625 84 M108.265625 -84 C108.265625 -31.124312213789352, 108.265625 21.751375572421296, 108.265625 84 M108.265625 84 C54.55580014972054 84, 0.8459752994410792 84, -108.265625 84 M108.265625 84 C35.29594697042904 84, -37.673731059141915 84, -108.265625 84 M-108.265625 84 C-108.265625 20.35196262085796, -108.265625 -43.29607475828408, -108.265625 -84 M-108.265625 84 C-108.265625 31.97872502033821, -108.265625 -20.04254995932358, -108.265625 -84" stroke="#9370DB" stroke-width="1.3" fill="none" stroke-dasharray="0 0" style=""/></g><g class="annotation-group text" transform="translate(0, -60)"/><g class="label-group text" transform="translate(-88.5, -60)"><g class="label" style="font-weight: bolder" transform="translate(0,-12)"><foreignObject width="177" height="24"><div xmlns="http://www.w3.org/1999/xhtml" style="display: table-cell; white-space: nowrap; line-height: 1.5; max-width: 210px; text-align: center;"><span class="nodeLabel markdown-node-label" style=""><p>DifficultyBudget_Rating</p></span></div></foreignObject></g></g><g class="members-group text" transform="translate(-96.265625, -12)"><g class="label" style="" transform="translate(0,-12)"><foreignObject width="62.078125" height="24"><div xmlns="http://www.w3.org/1999/xhtml" style="display: table-cell; white-space: nowrap; line-height: 1.5; max-width: 111px; text-align: center;"><span class="nodeLabel markdown-node-label" style=""><p>+Int cost</p></span></div></foreignObject></g><g class="label" style="" transform="translate(0,12)"><foreignObject width="82.421875" height="24"><div xmlns="http://www.w3.org/1999/xhtml" style="display: table-cell; white-space: nowrap; line-height: 1.5; max-width: 129px; text-align: center;"><span class="nodeLabel markdown-node-label" style=""><p>+Int budget</p></span></div></foreignObject></g><g class="label" style="" transform="translate(0,36)"><foreignObject width="104.03125" height="24"><div xmlns="http://www.w3.org/1999/xhtml" style="display: table-cell; white-space: nowrap; line-height: 1.5; max-width: 150px; text-align: center;"><span class="nodeLabel markdown-node-label" style=""><p>+Int remaining</p></span></div></foreignObject></g></g><g class="methods-group text" transform="translate(-96.265625, 84)"/><g class="divider" style=""><path d="M-108.265625 -36 C-22.533934241802115 -36, 63.19775651639577 -36, 108.265625 -36 M-108.265625 -36 C-62.19529923906906 -36, -16.124973478138116 -36, 108.265625 -36" stroke="#9370DB" stroke-width="1.3" fill="none" stroke-dasharray="0 0" style=""/></g><g class="divider" style=""><path d="M-108.265625 60 C-61.61810372714282 60, -14.970582454285633 60, 108.265625 60 M-108.265625 60 C-54.64961047472229 60, -1.0335959494445746 60, 108.265625 60" stroke="#9370DB" stroke-width="1.3" fill="none" stroke-dasharray="0 0" style=""/></g></g><g class="node default" id="classId-DifficultyBudget_Adjustment-4" transform="translate(836.064453125, 526)"><g class="basic label-container"><path d="M-138.86328125 -156 L138.86328125 -156 L138.86328125 156 L-138.86328125 156" stroke="none" stroke-width="0" fill="#ECECFF" style=""/><path d="M-138.86328125 -156 C-29.085308549876487 -156, 80.69266415024703 -156, 138.86328125 -156 M-138.86328125 -156 C-33.201597710570425 -156, 72.46008582885915 -156, 138.86328125 -156 M138.86328125 -156 C138.86328125 -74.46711114312433, 138.86328125 7.065777713751345, 138.86328125 156 M138.86328125 -156 C138.86328125 -57.305625639970586, 138.86328125 41.38874872005883, 138.86328125 156 M138.86328125 156 C36.05278149335359 156, -66.75771826329282 156, -138.86328125 156 M138.86328125 156 C75.8737847276893 156, 12.884288205378581 156, -138.86328125 156 M-138.86328125 156 C-138.86328125 49.94544109626045, -138.86328125 -56.109117807479095, -138.86328125 -156 M-138.86328125 156 C-138.86328125 90.50649825242228, -138.86328125 25.01299650484455, -138.86328125 -156" stroke="#9370DB" stroke-width="1.3" fill="none" stroke-dasharray="0 0" style=""/></g><g class="annotation-group text" transform="translate(-53.9296875, -132)"><g class="label" style="" transform="translate(0,-12)"><foreignObject width="107.859375" height="24"><div xmlns="http://www.w3.org/1999/xhtml" style="display: table-cell; white-space: nowrap; line-height: 1.5; max-width: 146px; text-align: center;"><span class="nodeLabel markdown-node-label" style=""><p>«enumeration»</p></span></div></foreignObject></g></g><g class="label-group text" transform="translate(-108.4140625, -108)"><g class="label" style="font-weight: bolder" transform="translate(0,-12)"><foreignObject width="216.828125" height="24"><div xmlns="http://www.w3.org/1999/xhtml" style="display: table-cell; white-space: nowrap; line-height: 1.5; max-width: 242px; text-align: center;"><span class="nodeLabel markdown-node-label" style=""><p>DifficultyBudget_Adjustment</p></span></div></foreignObject></g></g><g class="members-group text" transform="translate(-126.86328125, -60)"><g class="label" style="" transform="translate(0,-12)"><foreignObject width="79.203125" height="24"><div xmlns="http://www.w3.org/1999/xhtml" style="display: table-cell; white-space: nowrap; line-height: 1.5; max-width: 121px; text-align: center;"><span class="nodeLabel markdown-node-label" style=""><p>easierFight</p></span></div></foreignObject></g><g class="label" style="" transform="translate(0,12)"><foreignObject width="96.078125" height="24"><div xmlns="http://www.w3.org/1999/xhtml" style="display: table-cell; white-space: nowrap; line-height: 1.5; max-width: 139px; text-align: center;"><span class="nodeLabel markdown-node-label" style=""><p>multipleSolos</p></span></div></foreignObject></g><g class="label" style="" transform="translate(0,36)"><foreignObject width="113.21875" height="24"><div xmlns="http://www.w3.org/1999/xhtml" style="display: table-cell; white-space: nowrap; line-height: 1.5; max-width: 153px; text-align: center;"><span class="nodeLabel markdown-node-label" style=""><p>boostedDamage</p></span></div></foreignObject></g><g class="label" style="" transform="translate(0,60)"><foreignObject width="138.421875" height="24"><div xmlns="http://www.w3.org/1999/xhtml" style="display: table-cell; white-space: nowrap; line-height: 1.5; max-width: 179px; text-align: center;"><span class="nodeLabel markdown-node-label" style=""><p>lowerTierAdversary</p></span></div></foreignObject></g><g class="label" style="" transform="translate(0,84)"><foreignObject width="93.1875" height="24"><div xmlns="http://www.w3.org/1999/xhtml" style="display: table-cell; white-space: nowrap; line-height: 1.5; max-width: 137px; text-align: center;"><span class="nodeLabel markdown-node-label" style=""><p>noBigThreats</p></span></div></foreignObject></g><g class="label" style="" transform="translate(0,108)"><foreignObject width="83.3125" height="24"><div xmlns="http://www.w3.org/1999/xhtml" style="display: table-cell; white-space: nowrap; line-height: 1.5; max-width: 125px; text-align: center;"><span class="nodeLabel markdown-node-label" style=""><p>harderFight</p></span></div></foreignObject></g><g class="label" style="" transform="translate(0,132)"><foreignObject width="108.640625" height="24"><div xmlns="http://www.w3.org/1999/xhtml" style="display: table-cell; white-space: nowrap; line-height: 1.5; max-width: 155px; text-align: center;"><span class="nodeLabel markdown-node-label" style=""><p>+Int pointValue</p></span></div></foreignObject></g><g class="label" style="" transform="translate(0,156)"><foreignObject width="145.3125" height="24"><div xmlns="http://www.w3.org/1999/xhtml" style="display: table-cell; white-space: nowrap; line-height: 1.5; max-width: 191px; text-align: center;"><span class="nodeLabel markdown-node-label" style=""><p>+String displayName</p></span></div></foreignObject></g></g><g class="methods-group text" transform="translate(-126.86328125, 156)"/><g class="divider" style=""><path d="M-138.86328125 -84 C-38.04597567235551 -84, 62.77132990528898 -84, 138.86328125 -84 M-138.86328125 -84 C-28.44332221641568 -84, 81.97663681716864 -84, 138.86328125 -84" stroke="#9370DB" stroke-width="1.3" fill="none" stroke-dasharray="0 0" style=""/></g><g class="divider" style=""><path d="M-138.86328125 132 C-36.63917667226677 132, 65.58492790546646 132, 138.86328125 132 M-138.86328125 132 C-70.64081737765292 132, -2.418353505305845 132, 138.86328125 132" stroke="#9370DB" stroke-width="1.3" fill="none" stroke-dasharray="0 0" style=""/></g></g></g></g></g></svg>